<svg id="svg" version="1.1" xmlns="http://www.w3.org/2000/svg" style="display: block;" viewBox="0 -25 275 275"><rect x="0" y="-25" width="275" height="275" fill="white" /><path d="M0 0 C90.75 0 181.5 0 275 0 C275 74.25 275 148.5 275 225 C184.25 225 93.5 225 0 225 C0 150.75 0 76.5 0 0 Z " transform="translate(0,0)" style="fill: #FCFDFE;"/><path d="M0 0 C5.83695896 1.45923974 11.64017081 2.96241815 17.4375 4.5625 C18.25154297 4.78357422 19.06558594 5.00464844 19.90429688 5.23242188 C25.88289351 6.88289351 25.88289351 6.88289351 27 8 C27.09600136 9.606892 27.12187889 11.21801769 27.12025452 12.82777405 C27.12162918 13.87250381 27.12300385 14.91723358 27.12442017 15.99362183 C27.12082489 17.14951813 27.11722961 18.30541443 27.11352539 19.49633789 C27.11367142 20.70592667 27.11381744 21.91551544 27.1139679 23.16175842 C27.11338893 26.48806351 27.10835973 29.81430719 27.10139394 33.1406014 C27.09515978 36.61329929 27.09455655 40.08599793 27.09336853 43.55870056 C27.0902554 50.13896193 27.08204225 56.71920676 27.07201904 63.29946083 C27.06085734 70.78906112 27.05534731 78.27866218 27.05032361 85.7682687 C27.03985962 101.17885539 27.02226053 116.58942557 27 132 C18.04669256 135.31603979 9.58204133 136.87065748 0 139 C0 93.13 0 47.26 0 0 Z " transform="translate(190,12)" style="fill: #79E4DC;"/><path d="M0 0 C9.41699201 2.354248 18.73504116 5.10470036 28 8 C28 44.63 28 81.26 28 119 C2 127 2 127 0 127 C0 85.09 0 43.18 0 0 Z " transform="translate(58,18)" style="fill: #365CB3;"/><path d="M0 0 C9 2 18 4 27 6 C27 25.8 27 45.6 27 66 C22.20861975 67.59712675 17.85052784 68.72588379 12.9375 69.625 C11.89625977 69.82609375 11.89625977 69.82609375 10.83398438 70.03125 C7.1008292 70.72612029 3.83091515 71 0 71 C0 47.57 0 24.14 0 0 Z " transform="translate(102,75)" style="fill: #408CFA;"/><path d="M0 0 C0 23.76 0 47.52 0 72 C-7.87896679 70.87443332 -7.87896679 70.87443332 -11.11328125 69.84375 C-12.1487207 69.51697266 -12.1487207 69.51697266 -13.20507812 69.18359375 C-13.90052734 68.95800781 -14.59597656 68.73242188 -15.3125 68.5 C-16.02728516 68.27441406 -16.74207031 68.04882812 -17.47851562 67.81640625 C-22.68340097 66.15829951 -22.68340097 66.15829951 -25 65 C-25 45.53 -25 26.06 -25 6 C-5.8 0 -5.8 0 0 0 Z " transform="translate(173,57)" style="fill: #03C6D0;"/><path d="M0 0 C17 0 17 0 23 4 C25 7 25 7 24.8125 10.4375 C24.03703201 13.83762889 23.32086189 15.47732403 21 18 C21.78375 18.433125 22.5675 18.86625 23.375 19.3125 C26 21 26 21 28 24 C28.59990303 28.54212295 28.36503428 30.44723381 25.8125 34.3125 C18.07928736 41.7020143 11.56937745 39 0 39 C0 26.13 0 13.26 0 0 Z " transform="translate(8,163)" style="fill: #3E5FAE;"/><path d="M0 0 C2.5625 1.5625 2.5625 1.5625 4 3 C4.33 2.01 4.66 1.02 5 0 C6.32 0 7.64 0 9 0 C9 8.91 9 17.82 9 27 C7.68 27 6.36 27 5 27 C4.67 26.01 4.34 25.02 4 24 C3.17822266 24.72896484 3.17822266 24.72896484 2.33984375 25.47265625 C-1.76947928 28.15503572 -6.26648168 27.62597791 -11 27 C-15.38015372 24.62741674 -17.3037142 21.6424664 -19 17 C-19.71932787 12.61385443 -19.37698302 9.75396605 -17.375 5.75 C-12.03669692 -0.43119304 -7.82616494 -2.13845873 0 0 Z " transform="translate(172,175)" style="fill: #4966AF;"/><path d="M0 0 C1.65 0 3.3 0 5 0 C5 2.31 5 4.62 5 7 C6.98 7 8.96 7 11 7 C11 8.32 11 9.64 11 11 C9.02 11 7.04 11 5 11 C5.495 19.91 5.495 19.91 6 29 C7.65 29.33 9.3 29.66 11 30 C11 31.65 11 33.3 11 35 C4.66913069 35.36524246 4.66913069 35.36524246 1.79003906 33.79370117 C0 32 0 32 -0.45410156 29.73168945 C-0.4331543 28.86761475 -0.41220703 28.00354004 -0.390625 27.11328125 C-0.37773438 26.17548828 -0.36484375 25.23769531 -0.3515625 24.27148438 C-0.31804687 23.29501953 -0.28453125 22.31855469 -0.25 21.3125 C-0.23195312 20.32443359 -0.21390625 19.33636719 -0.1953125 18.31835938 C-0.14815447 15.87793158 -0.08236042 13.43945231 0 11 C-2.8806332 10.92123739 -2.8806332 10.92123739 -6 12 C-7.63838999 14.50189731 -8.73856404 16.59426439 -9.8671875 19.31640625 C-10.19163849 20.04746078 -10.51608948 20.77851532 -10.85037231 21.53172302 C-11.88056968 23.86639148 -12.87787588 26.21354262 -13.875 28.5625 C-14.56819056 30.14871546 -15.26347923 31.73401579 -15.9609375 33.31835938 C-17.66514279 37.20204438 -19.33998802 41.09723279 -21 45 C-22.65 45 -24.3 45 -26 45 C-25.65775391 44.12988281 -25.65775391 44.12988281 -25.30859375 43.2421875 C-25.02113281 42.46101563 -24.73367187 41.67984375 -24.4375 40.875 C-24.14746094 40.10929687 -23.85742188 39.34359375 -23.55859375 38.5546875 C-22.05253643 31.66684493 -25.81877576 25.39291706 -28.5625 19.25 C-29.40031594 17.36078227 -30.2351115 15.47022125 -31.06640625 13.578125 C-31.43709229 12.74700195 -31.80777832 11.91587891 -32.18969727 11.05957031 C-33 9 -33 9 -33 7 C-31.02 7 -29.04 7 -27 7 C-24.36 13.6 -21.72 20.2 -19 27 C-16.03 20.4 -13.06 13.8 -10 7 C-6.7 7 -3.4 7 0 7 C0 4.69 0 2.38 0 0 Z " transform="translate(71,168)" style="fill: #3F5EA9;"/><path d="M0 0 C4.45638494 2.13753796 6.38606389 4.96355527 8.4453125 9.375 C9.07421875 11.375 9.07421875 11.375 9.07421875 15.375 C1.15421875 15.375 -6.76578125 15.375 -14.92578125 15.375 C-12.75911458 21.20833333 -12.75911458 21.20833333 -9.92578125 22.375 C-8.46998538 22.47055417 -7.00970165 22.50484691 -5.55078125 22.5 C-4.77992188 22.50257813 -4.0090625 22.50515625 -3.21484375 22.5078125 C-0.99296235 22.37889788 0.94040383 21.98883717 3.07421875 21.375 C3.07421875 20.715 3.07421875 20.055 3.07421875 19.375 C4.39421875 20.035 5.71421875 20.695 7.07421875 21.375 C6.03556657 24.72176814 5.02808922 25.40032602 1.88671875 27.125 C-3.0935054 29.00549957 -7.20031667 29.07182223 -12.17578125 27.0625 C-16.49555628 24.41172896 -18.49879744 22.31455934 -19.92578125 17.375 C-20.3770037 12.6371643 -20.43231102 10.38805955 -18.30078125 6.125 C-13.12385319 0.13066225 -7.74840169 -2.51469426 0 0 Z " transform="translate(258.92578125,174.625)" style="fill: #3D5FAE;"/><path d="M0 0 C19.61538462 0 19.61538462 0 25.75 5.4375 C30.53730067 10.88970354 30.42732278 15.45337735 30.31640625 22.57421875 C29.78031538 28.37856069 27.80866591 31.23893056 23.625 35.3125 C15.68135477 40.41912908 9.99624136 39 0 39 C0 26.13 0 13.26 0 0 Z M5 4 C5 13.9 5 23.8 5 34 C14.03809499 34.45338299 14.03809499 34.45338299 21 31 C25.24207175 26.31909324 25.29902869 21.72606488 25.203125 15.66015625 C24.93877624 12.1982042 24.43647006 10.51260975 22 8 C16.02633812 3.7651505 12.90958683 4 5 4 Z " transform="translate(120,163)" style="fill: #3E60AE;"/><path d="M0 0 C5.10830118 1.83898842 8.03263052 4.4616702 11 9 C11 11.31 11 13.62 11 16 C3.41 16 -4.18 16 -12 16 C-9.83333333 21.83333333 -9.83333333 21.83333333 -7 23 C-4.89044938 23.19738723 -4.89044938 23.19738723 -2.5625 23.1875 C-1.38880859 23.20876953 -1.38880859 23.20876953 -0.19140625 23.23046875 C2.29205987 23.14086064 2.29205987 23.14086064 5 21 C7.6875 21.375 7.6875 21.375 10 22 C8.85571683 25.43284952 8.45259103 25.6368219 5.375 27.1875 C0.21358407 29.58387168 -3.77303631 29.78598718 -9.1875 27.875 C-13.38040349 25.07973101 -15.42162539 21.73512382 -17 17 C-17.38981277 12.8679846 -17.27518905 10.53979391 -15.375 6.8125 C-10.84069695 1.4429306 -7.12158671 -0.89019834 0 0 Z " transform="translate(101,174)" style="fill: #4C6AAF;"/><path d="M0 0 C12 0 12 0 16 3 C12.7 3 9.4 3 6 3 C6 7.62 6 12.24 6 17 C8.97851562 16.90234375 8.97851562 16.90234375 11.95703125 16.8046875 C14 17 14 17 17 19 C16 20 16 20 13.71484375 20.09765625 C11.14322917 20.06510417 8.57161458 20.03255208 6 20 C6 24.62 6 29.24 6 34 C9.96 34 13.92 34 18 34 C17.67 35.65 17.34 37.3 17 39 C11.39 39 5.78 39 0 39 C0 26.13 0 13.26 0 0 Z " transform="translate(8,163)" style="fill: #3B5EAF;"/><path d="M0 0 C3.79335366 1.72425166 5.47814359 3.1548614 7 7 C7.22705078 9.38183594 7.22705078 9.38183594 7.1953125 11.984375 C7.18886719 12.91894531 7.18242187 13.85351562 7.17578125 14.81640625 C7.15902344 15.78449219 7.14226562 16.75257813 7.125 17.75 C7.11597656 18.73355469 7.10695312 19.71710938 7.09765625 20.73046875 C7.07412785 23.15389407 7.04125368 25.57682222 7 28 C5.68 28 4.36 28 3 28 C2.98018066 27.44014404 2.96036133 26.88028809 2.93994141 26.3034668 C2.84462217 23.76434146 2.73497247 21.22603112 2.625 18.6875 C2.5940625 17.80642578 2.563125 16.92535156 2.53125 16.01757812 C2.49257812 15.17001953 2.45390625 14.32246094 2.4140625 13.44921875 C2.36693115 12.27879028 2.36693115 12.27879028 2.31884766 11.0847168 C2.10412111 8.69844232 2.10412111 8.69844232 0 6 C-1.901994 5.52441794 -1.901994 5.52441794 -4 5.625 C-5.051875 5.61339844 -5.051875 5.61339844 -6.125 5.6015625 C-8.41058594 5.859086 -8.41058594 5.859086 -10 9 C-10.36433373 11.12337771 -10.36433373 11.12337771 -10.4140625 13.44921875 C-10.45273438 14.29677734 -10.49140625 15.14433594 -10.53125 16.01757812 C-10.57765625 17.33918945 -10.57765625 17.33918945 -10.625 18.6875 C-10.66367188 19.58017578 -10.70234375 20.47285156 -10.7421875 21.39257812 C-10.83640218 23.5948462 -10.92201588 25.79710722 -11 28 C-12.65 28 -14.3 28 -16 28 C-16 19.09 -16 10.18 -16 1 C-14.35 1 -12.7 1 -11 1 C-10.67 1.66 -10.34 2.32 -10 3 C-9.46375 2.505 -8.9275 2.01 -8.375 1.5 C-5.30142595 -0.44120466 -3.58544099 -0.43903359 0 0 Z " transform="translate(202,174)" style="fill: #4060AB;"/><path d="M0 0 C2.16015625 0.58203125 2.16015625 0.58203125 5.22265625 3.14453125 C7.46641334 7.12539061 7.89555678 9.08791691 7.16015625 13.58203125 C5.3645322 16.33532146 4.10760703 18.10830586 1.16015625 19.58203125 C-1.8512018 19.92759693 -3.93345546 20.15997462 -6.83984375 19.58203125 C-10.37396235 16.56330495 -11.64718769 14.66090519 -12.46484375 10.08203125 C-11.15205071 2.73039025 -7.28977272 -0.52330589 0 0 Z " transform="translate(169.83984375,178.41796875)" style="fill: #F6FAFD;"/><path d="M0 0 C0.99 0.33 1.98 0.66 3 1 C3 42.25 3 83.5 3 126 C-3.5003034 129.2501517 -8.84673677 130.25099169 -16 130 C-12 128 -12 128 0 125 C0 83.75 0 42.5 0 0 Z " transform="translate(216,19)" style="fill: #D7FBF8;"/><path d="M0 0 C0.845625 0.495 1.69125 0.99 2.5625 1.5 C1.9025 2.82 1.2425 4.14 0.5625 5.5 C-0.4275 5.17 -1.4175 4.84 -2.4375 4.5 C-8.27222545 3.82214795 -8.27222545 3.82214795 -13.5 5.9375 C-15.22318932 10.64755081 -15.22318932 15.35244919 -13.5 20.0625 C-10.12388919 22.41554693 -6.42056171 21.94015718 -2.4375 21.5 C-1.4475 21.17 -0.4575 20.84 0.5625 20.5 C1.2225 21.82 1.8825 23.14 2.5625 24.5 C-1.99201637 27.16605836 -5.16519177 28.22721493 -10.4375 27.5 C-14.07267221 25.837453 -17.38470255 24.07067839 -19.64453125 20.69921875 C-21.28969311 16.13652847 -20.95952685 11.26349497 -20.4375 6.5 C-16.26592796 -1.36180884 -7.92630708 -3.45875218 0 0 Z " transform="translate(233.4375,175.5)" style="fill: #4665AE;"/><path d="M0 0 C5.22823866 -0.36689394 8.97723382 -0.27660076 13.45703125 2.59375 C16.27651459 5.1634057 17.86500731 8.39058225 19 12 C19 13.32 19 14.64 19 16 C11.08 16 3.16 16 -5 16 C-5 15.67 -5 15.34 -5 15 C1.93 15 8.86 15 16 15 C16 13.02 16 11.04 16 9 C15.34 9 14.68 9 14 9 C14 10.32 14 11.64 14 13 C7.73 13 1.46 13 -5 13 C-3.86382265 7.31911326 -2.71674706 6.09795189 1 2 C1.33 2.66 1.66 3.32 2 4 C2.99 3.67 3.98 3.34 5 3 C5 2.34 5 1.68 5 1 C3.35 1 1.7 1 0 1 C0 0.67 0 0.34 0 0 Z " transform="translate(249,174)" style="fill: #4A67AE;"/><path d="M0 0 C1.98 0 3.96 0 6 0 C6 24.42 6 48.84 6 74 C0.83693969 75.03261206 -1.67629701 74.42828454 -6.375 72.6875 C-7.65311658 72.23158646 -8.93176155 71.77715146 -10.2109375 71.32421875 C-10.83323242 71.10169434 -11.45552734 70.87916992 -12.09667969 70.64990234 C-15.03339665 69.64713932 -18.00843475 68.82326021 -21 68 C-21 67.34 -21 66.68 -21 66 C-12.64172487 68.25161697 -4.32454419 70.6215588 4 73 C4 49.24 4 25.48 4 1 C2.35 1.33 0.7 1.66 -1 2 C-0.67 1.34 -0.34 0.68 0 0 Z " transform="translate(169,56)" style="fill: #CDFDFD;"/><path d="M0 0 C9.9978099 -0.48182216 9.9978099 -0.48182216 14.25 1.5625 C16 4 16 4 16 7.625 C15 11 15 11 12 13 C7.98500069 13.26874159 4.02862593 13.08663712 0 13 C0 8.71 0 4.42 0 0 Z " transform="translate(14,184)" style="fill: #F5F9FD;"/><path d="M0 0 C8.17817372 -0.36080178 8.17817372 -0.36080178 11.5625 1.125 C13 3 13 3 13.4375 6 C13 9 13 9 11.796875 10.67578125 C9.37084019 12.46366343 7.79122294 12.30355414 4.8125 12.1875 C3.224375 12.125625 1.63625 12.06375 0 12 C0 8.04 0 4.08 0 0 Z " transform="translate(14,167)" style="fill: #F5F9FD;"/><path d="M0 0 C1.32 0 2.64 0 4 0 C4 8.91 4 17.82 4 27 C2.68 27 1.36 27 0 27 C-2.53347279 23.19979081 -1.96864245 21.70968253 -1.4375 17.25 C-0.90804132 11.4379877 -1.02322992 8.00097373 -4 3 C-3.01 3 -2.02 3 -1 3 C-0.67 2.01 -0.34 1.02 0 0 Z " transform="translate(177,175)" style="fill: #385BAC;"/><path d="M0 0 C5.20250277 0.40803943 8.45071909 1.03315663 12 5 C13.09928062 8.77877714 13.36836181 10.99246494 12.01171875 14.703125 C10 17 10 17 6.20703125 17.48828125 C4.74139115 17.45512197 3.27615861 17.39558979 1.8125 17.3125 C1.06291016 17.28994141 0.31332031 17.26738281 -0.45898438 17.24414062 C-2.3068447 17.18529157 -4.15367667 17.09560938 -6 17 C-6 16.67 -6 16.34 -6 16 C-4.95199219 15.92652344 -4.95199219 15.92652344 -3.8828125 15.8515625 C-2.97273438 15.77679688 -2.06265625 15.70203125 -1.125 15.625 C-0.22007813 15.55539063 0.68484375 15.48578125 1.6171875 15.4140625 C4.17941903 15.20431868 4.17941903 15.20431868 6 13 C6.41666667 10 6.41666667 10 6 7 C2.96474514 4.97649676 1.80573798 4.67875982 -1.6875 4.375 C-2.89986328 4.26285156 -2.89986328 4.26285156 -4.13671875 4.1484375 C-4.75160156 4.09945312 -5.36648438 4.05046875 -6 4 C-6 3.67 -6 3.34 -6 3 C-3.36 2.67 -0.72 2.34 2 2 C1.34 1.34 0.68 0.68 0 0 Z " transform="translate(20,163)" style="fill: #4764A9;"/><path d="M0 0 C0.928125 0.20625 1.85625 0.4125 2.8125 0.625 C2.8125 1.285 2.8125 1.945 2.8125 2.625 C3.8025 2.295 4.7925 1.965 5.8125 1.625 C7.98176659 4.87889988 8.05330049 5.75895957 8.0078125 9.51171875 C7.99814453 10.9184082 7.99814453 10.9184082 7.98828125 12.35351562 C7.97152344 13.32998047 7.95476562 14.30644531 7.9375 15.3125 C7.92847656 16.30056641 7.91945312 17.28863281 7.91015625 18.30664062 C7.8865843 20.74633765 7.85368022 23.18554697 7.8125 25.625 C6.4925 25.625 5.1725 25.625 3.8125 25.625 C3.79848145 24.79307129 3.79848145 24.79307129 3.78417969 23.94433594 C3.73034278 21.42033519 3.64672746 18.89816186 3.5625 16.375 C3.54832031 15.50230469 3.53414062 14.62960938 3.51953125 13.73046875 C3.35750918 8.54138859 3.35750918 8.54138859 0.9375 4.0625 C-1.45975198 2.44082954 -3.32738389 1.94279068 -6.1875 1.625 C-3.1875 -0.375 -3.1875 -0.375 0 0 Z " transform="translate(201.1875,176.375)" style="fill: #3759A6;"/><path d="M0 0 C0 2.31 0 4.62 0 7 C-7.59 7 -15.18 7 -23 7 C-23 8.32 -23 9.64 -23 11 C-23.99 10.67 -24.98 10.34 -26 10 C-26 7.36 -26 4.72 -26 2 C-25.34 1.67 -24.68 1.34 -24 1 C-24 1.99 -24 2.98 -24 4 C-17.73 4 -11.46 4 -5 4 C-5 3.01 -5 2.02 -5 1 C-2 0 -2 0 0 0 Z " transform="translate(112,183)" style="fill: #395CAB;"/><path d="M0 0 C2.5625 1.8125 2.5625 1.8125 4 4 C4 4.99 4 5.98 4 7 C-1.94 7 -7.88 7 -14 7 C-11.04154251 -0.39614372 -7.36730583 -1.10376604 0 0 Z " transform="translate(258,179)" style="fill: #FBFCFD;"/><path d="M0 0 C2.5625 2.375 2.5625 2.375 4 5 C4 5.66 4 6.32 4 7 C-1.94 7 -7.88 7 -14 7 C-11.10312201 -0.24219498 -7.31287289 -1.33321329 0 0 Z " transform="translate(103,179)" style="fill: #F2F8FD;"/><path d="M0 0 C0 23.76 0 47.52 0 72 C-2.31 71.67 -4.62 71.34 -7 71 C-3.25 69.875 -3.25 69.875 -1 71 C-1.33 48.23 -1.66 25.46 -2 2 C-5.3 2.33 -8.6 2.66 -12 3 C-8.06769671 0.37846447 -4.67664739 0 0 0 Z " transform="translate(173,57)" style="fill: #35BEC5;"/><path d="M0 0 C4.95 0 9.9 0 15 0 C15.33 0.99 15.66 1.98 16 3 C15 4 15 4 12.71484375 4.09765625 C11.34005859 4.08025391 11.34005859 4.08025391 9.9375 4.0625 C9.01839844 4.05347656 8.09929687 4.04445312 7.15234375 4.03515625 C6.44207031 4.02355469 5.73179688 4.01195312 5 4 C5 3.01 5 2.02 5 1 C4.01 1.33 3.02 1.66 2 2 C1.67 13.88 1.34 25.76 1 38 C3.97 38 6.94 38 10 38 C10 38.33 10 38.66 10 39 C6.7 39 3.4 39 0 39 C0 26.13 0 13.26 0 0 Z " transform="translate(120,163)" style="fill: #3859A3;"/><path d="M0 0 C6.82145667 1.47129458 10.060357 4.09053551 14 10 C13.625 13.1875 13.625 13.1875 13 16 C12.01 16.33 11.02 16.66 10 17 C9.67 15.7625 9.34 14.525 9 13.25 C7.66347646 9.57293035 6.32146877 8.21411572 2.8125 6.5 C1.55249945 5.97329707 0.28450051 5.46376265 -1 5 C-0.67 3.35 -0.34 1.7 0 0 Z " transform="translate(135,163)" style="fill: #3A5CA9;"/><path d="M0 0 C1.20628008 2.33214148 2.1654738 4.49642139 3 7 C1.78515625 10.13671875 1.78515625 10.13671875 0.0625 13.6875 C-0.50339844 14.86699219 -1.06929687 16.04648438 -1.65234375 17.26171875 C-2.09707031 18.16535156 -2.54179688 19.06898438 -3 20 C-4.65 20 -6.3 20 -8 20 C-7.54554036 18.58208592 -7.08625056 17.16571954 -6.625 15.75 C-6.24214844 14.56664062 -6.24214844 14.56664062 -5.8515625 13.359375 C-5.04826333 11.13372042 -4.10288338 9.09068328 -3 7 C-2 10 -2 10 -3 12 C-2.34 12 -1.68 12 -1 12 C-1 10.906875 -1 9.81375 -1 8.6875 C-1 2 -1 2 0 0 Z " transform="translate(53,193)" style="fill: #4866AE;"/><path d="M0 0 C1.32 0.66 2.64 1.32 4 2 C2.96134782 5.34676814 1.95387047 6.02532602 -1.1875 7.75 C-4.82422724 9.16343391 -8.10320937 9.23857902 -12 9 C-12 8.34 -12 7.68 -12 7 C-9.69 7 -7.38 7 -5 7 C-5 6.34 -5 5.68 -5 5 C-6.98 5 -8.96 5 -11 5 C-11 4.67 -11 4.34 -11 4 C-7.37 3.34 -3.74 2.68 0 2 C0 1.34 0 0.68 0 0 Z " transform="translate(262,194)" style="fill: #4B69AC;"/><path d="M0 0 C0.99 0.33 1.98 0.66 3 1 C2.67 1.99 2.34 2.98 2 4 C1.77820215 5.89212737 1.59385985 7.78884472 1.4375 9.6875 C1.35371094 10.68136719 1.26992187 11.67523438 1.18359375 12.69921875 C1.12300781 13.45847656 1.06242188 14.21773437 1 15 C0.01 15.33 -0.98 15.66 -2 16 C-2.9861046 11.93231851 -3.30405501 8.18075636 -3 4 C-1.5 1.5625 -1.5 1.5625 0 0 Z " transform="translate(157,178)" style="fill: #375AAA;"/><path d="M0 0 C0.66 0 1.32 0 2 0 C2 6.27 2 12.54 2 19 C1.34 19.33 0.68 19.66 0 20 C-1.1151293 16.6546121 -1.13299072 14.08241188 -1.125 10.5625 C-1.12886719 8.86287109 -1.12886719 8.86287109 -1.1328125 7.12890625 C-1.02325193 4.54778817 -0.75864877 2.45055595 0 0 Z " transform="translate(73,179)" style="fill: #3358B1;"/><path d="M0 0 C0.66 0.61875 1.32 1.2375 2 1.875 C5.70411034 4.49874482 8.57924515 5.10086342 13 6 C13 6.66 13 7.32 13 8 C9.64141186 8.65867457 6.42743722 9.1465164 3 9 C-0.125 6.5625 -0.125 6.5625 -2 4 C-1.34 3.34 -0.68 2.68 0 2 C0 1.34 0 0.68 0 0 Z " transform="translate(244,193)" style="fill: #4866AD;"/><path d="M0 0 C0.33 0 0.66 0 1 0 C1.33 3.3 1.66 6.6 2 10 C3.32 9.34 4.64 8.68 6 8 C8.62386487 11.06117568 9 11.73173127 9 16 C9.33 16.66 9.66 17.32 10 18 C5.57673622 16.64844718 3.59587018 14.80109562 1 11 C-0.28317892 7.15046324 -0.06643637 4.05261865 0 0 Z " transform="translate(153,184)" style="fill: #4F6BAE;"/><path d="M0 0 C-1 3 -1 3 -3.625 4.8125 C-7.8320515 6.29275886 -9.90494293 5.55612169 -14 4 C-13.443125 3.731875 -12.88625 3.46375 -12.3125 3.1875 C-9.91668533 2.02090786 -9.91668533 2.02090786 -7.5625 0.3125 C-4.50861642 -1.25168427 -3.20884927 -1.00849549 0 0 Z " transform="translate(111,196)" style="fill: #4B66AB;"/><path d="M0 0 C1.98 0.99 1.98 0.99 4 2 C3.95875 3.0725 3.9175 4.145 3.875 5.25 C3.9885825 8.65747485 4.21273364 10.20739631 6 13 C5.01 13.495 5.01 13.495 4 14 C2 12.625 2 12.625 0 10 C-0.35791096 6.6419531 -0.23115823 3.36463643 0 0 Z " transform="translate(213,184)" style="fill: #365AA9;"/><path d="M0 0 C2.875 1.5 2.875 1.5 5 3 C4.67 3.66 4.34 4.32 4 5 C3.34 5 2.68 5 2 5 C2 4.34 2 3.68 2 3 C0.02 3 -1.96 3 -4 3 C-3.34 3.66 -2.68 4.32 -2 5 C-5.375 5.625 -5.375 5.625 -9 6 C-9.66 5.34 -10.32 4.68 -11 4 C-7.2916337 0.5097729 -5.11538773 -0.74599404 0 0 Z " transform="translate(202,174)" style="fill: #516FB1;"/><path d="M0 0 C0.8971875 0.309375 0.8971875 0.309375 1.8125 0.625 C1.008125 1.099375 0.20375 1.57375 -0.625 2.0625 C-3.03503488 3.39400154 -3.03503488 3.39400154 -4.1875 4.625 C0.1025 4.955 4.3925 5.285 8.8125 5.625 C9.1425 4.635 9.4725 3.645 9.8125 2.625 C10.1425 3.945 10.4725 5.265 10.8125 6.625 C4.8725 6.625 -1.0675 6.625 -7.1875 6.625 C-4.24632353 -0.72794118 -4.24632353 -0.72794118 0 0 Z " transform="translate(251.1875,179.375)" style="fill: #EDF6FD;"/><path d="M0 0 C1.258125 -0.020625 2.51625 -0.04125 3.8125 -0.0625 C4.52019531 -0.07410156 5.22789062 -0.08570313 5.95703125 -0.09765625 C8 0 8 0 11 1 C10.67 2.32 10.34 3.64 10 5 C6.37 5.33 2.74 5.66 -1 6 C-0.34 4.68 0.32 3.36 1 2 C1.33 2.66 1.66 3.32 2 4 C2.99 3.67 3.98 3.34 5 3 C5 2.34 5 1.68 5 1 C3.35 1 1.7 1 0 1 C0 0.67 0 0.34 0 0 Z " transform="translate(249,174)" style="fill: #5571B5;"/><path d="M0 0 C2.05078125 0.03255208 4.1015625 0.06510417 6.15234375 0.09765625 C6.15234375 1.74765625 6.15234375 3.39765625 6.15234375 5.09765625 C3.84234375 5.09765625 1.53234375 5.09765625 -0.84765625 5.09765625 C-1.50765625 3.77765625 -2.16765625 2.45765625 -2.84765625 1.09765625 C-1.84765625 0.09765625 -1.84765625 0.09765625 0 0 Z " transform="translate(75.84765625,197.90234375)" style="fill: #4D6AB0;"/><path d="M0 0 C1.32 0 2.64 0 4 0 C4 8.91 4 17.82 4 27 C2.68 26.67 1.36 26.34 0 26 C0.99 26 1.98 26 3 26 C2.67 18.41 2.34 10.82 2 3 C1.34 2.67 0.68 2.34 0 2 C0 1.34 0 0.68 0 0 Z " transform="translate(177,175)" style="fill: #3B599A;"/><path d="M0 0 C0.33 0.66 0.66 1.32 1 2 C1.99 2 2.98 2 4 2 C3.67 2.99 3.34 3.98 3 5 C-0.0625 6.1875 -0.0625 6.1875 -3 7 C-3 6.34 -3 5.68 -3 5 C-2.01 5 -1.02 5 0 5 C0 4.34 0 3.68 0 3 C-0.54140625 3.16371094 -1.0828125 3.32742187 -1.640625 3.49609375 C-4.40222593 4.08590587 -6.92818139 4.09609308 -9.75 4.0625 C-10.73484375 4.05347656 -11.7196875 4.04445312 -12.734375 4.03515625 C-13.48203125 4.02355469 -14.2296875 4.01195312 -15 4 C-15 3.67 -15 3.34 -15 3 C-14.08476563 2.86722656 -13.16953125 2.73445312 -12.2265625 2.59765625 C-11.03804687 2.42105469 -9.84953125 2.24445313 -8.625 2.0625 C-7.44164062 1.88847656 -6.25828125 1.71445313 -5.0390625 1.53515625 C-2.09297619 1.16537214 -2.09297619 1.16537214 0 0 Z " transform="translate(140,194)" style="fill: #5772B2;"/><path d="M0 0 C1.43861294 0.08746284 2.87597508 0.19565348 4.3125 0.3125 C5.11300781 0.37050781 5.91351563 0.42851562 6.73828125 0.48828125 C9.36272334 1.08206694 10.30820672 1.95780294 12 4 C11.01 5.485 11.01 5.485 10 7 C9.67 6.67 9.34 6.34 9 6 C6.67182036 5.63239269 4.3381615 5.29758419 2 5 C2 4.67 2 4.34 2 4 C3.65 3.67 5.3 3.34 7 3 C4.36 2.67 1.72 2.34 -1 2 C-0.67 1.34 -0.34 0.68 0 0 Z " transform="translate(163,174)" style="fill: #5670B0;"/><path d="M0 0 C2.31 0.66 4.62 1.32 7 2 C6.67 3.98 6.34 5.96 6 8 C3.69 7.01 1.38 6.02 -1 5 C-0.67 3.35 -0.34 1.7 0 0 Z " transform="translate(135,163)" style="fill: #4664AE;"/><path d="M0 0 C6.75 -0.125 6.75 -0.125 9 1 C9 1.99 9 2.98 9 4 C5.52674819 5.1577506 2.63932552 5.06866652 -1 5 C-1 4.34 -1 3.68 -1 3 C1.31 3 3.62 3 6 3 C6 2.34 6 1.68 6 1 C4.02 1 2.04 1 0 1 C0 0.67 0 0.34 0 0 Z " transform="translate(251,198)" style="fill: #5572B3;"/><path d="M0 0 C3.96 0 7.92 0 12 0 C11.67 1.65 11.34 3.3 11 5 C8.03 4.505 8.03 4.505 5 4 C5.33 3.01 5.66 2.02 6 1 C4.02 1 2.04 1 0 1 C0 0.67 0 0.34 0 0 Z " transform="translate(14,197)" style="fill: #506FB5;"/><path d="M0 0 C0.886875 0.103125 1.77375 0.20625 2.6875 0.3125 C2.6875 0.9725 2.6875 1.6325 2.6875 2.3125 C3.3475 2.6425 4.0075 2.9725 4.6875 3.3125 C2.35416667 3.3125 0.02083333 3.3125 -2.3125 3.3125 C-3.0240625 4.3025 -3.0240625 4.3025 -3.75 5.3125 C-4.265625 5.9725 -4.78125 6.6325 -5.3125 7.3125 C-6.3025 7.3125 -7.2925 7.3125 -8.3125 7.3125 C-8.3125 5.3125 -8.3125 5.3125 -6.1875 2.6875 C-3.3125 0.3125 -3.3125 0.3125 0 0 Z " transform="translate(251.3125,174.6875)" style="fill: #3759A8;"/><path d="M0 0 C1.58246707 -0.08153933 3.16616273 -0.13943557 4.75 -0.1875 C6.07257812 -0.23970703 6.07257812 -0.23970703 7.421875 -0.29296875 C10.44671583 0.05076316 11.75583602 1.00227459 14 3 C12.41753293 3.08153933 10.83383727 3.13943557 9.25 3.1875 C8.36828125 3.22230469 7.4865625 3.25710937 6.578125 3.29296875 C3.55328417 2.94923684 2.24416398 1.99772541 0 0 Z " transform="translate(10,163)" style="fill: #3558AC;"/><path d="M0 0 C2.125 0.9375 2.125 0.9375 4 2 C3.34 3.32 2.68 4.64 2 6 C-1.3 5.34 -4.6 4.68 -8 4 C-8 3.67 -8 3.34 -8 3 C-6.02 3 -4.04 3 -2 3 C-2 2.34 -2 1.68 -2 1 C-1.34 0.67 -0.68 0.34 0 0 Z " transform="translate(232,175)" style="fill: #5571B0;"/><path d="M0 0 C3.5 1.25 3.5 1.25 5.5 4.25 C0.12694301 4.60233161 0.12694301 4.60233161 -2.5 4.25 C-4.5 2.25 -4.5 2.25 -5.5 0.25 C-3.5 -0.75 -3.5 -0.75 0 0 Z " transform="translate(165.5,197.75)" style="fill: #3659A8;"/><path d="M0 0 C3.63 0.33 7.26 0.66 11 1 C11 1.33 11 1.66 11 2 C10.05125 2.12375 9.1025 2.2475 8.125 2.375 C4.91332809 2.71687177 4.91332809 2.71687177 3 5 C2.67 4.34 2.34 3.68 2 3 C1.01 4.485 1.01 4.485 0 6 C-0.66 6 -1.32 6 -2 6 C-1.34 4.02 -0.68 2.04 0 0 Z " transform="translate(60,177)" style="fill: #526EB1;"/><path d="M0 0 C2.625 0.375 2.625 0.375 5 1 C4.67 1.99 4.34 2.98 4 4 C-1.28 4 -6.56 4 -12 4 C-12 3.67 -12 3.34 -12 3 C-10.95199219 2.92652344 -10.95199219 2.92652344 -9.8828125 2.8515625 C-8.97273438 2.77679688 -8.06265625 2.70203125 -7.125 2.625 C-6.22007813 2.55539063 -5.31515625 2.48578125 -4.3828125 2.4140625 C-1.82058097 2.20431868 -1.82058097 2.20431868 0 0 Z " transform="translate(26,176)" style="fill: #5E78B7;"/><path d="M0 0 C0.66 0.33 1.32 0.66 2 1 C2 3.64 2 6.28 2 9 C0.68 9.33 -0.64 9.66 -2 10 C-1.34 6.7 -0.68 3.4 0 0 Z " transform="translate(29,168)" style="fill: #3259B0;"/><path d="M0 0 C2.46278801 2.46278801 2.99771255 4.70676982 4 8 C1.13275314 7.42655063 0.1385485 7.1385485 -2 5 C-2 3.68 -2 2.36 -2 1 C-1.34 0.67 -0.68 0.34 0 0 Z " transform="translate(89,193)" style="fill: #4564AE;"/><path d="M0 0 C2.97 0.33 5.94 0.66 9 1 C9 1.66 9 2.32 9 3 C5.7 3.33 2.4 3.66 -1 4 C-0.67 2.68 -0.34 1.36 0 0 Z " transform="translate(248,198)" style="fill: #3A5CAC;"/><path d="M0 0 C1.27875 -0.061875 2.5575 -0.12375 3.875 -0.1875 C4.95394531 -0.23970703 4.95394531 -0.23970703 6.0546875 -0.29296875 C6.69664062 -0.19628906 7.33859375 -0.09960938 8 0 C8.66 0.99 9.32 1.98 10 3 C6.37 2.67 2.74 2.34 -1 2 C-0.67 1.34 -0.34 0.68 0 0 Z " transform="translate(125,199)" style="fill: #3D60B5;"/><path d="M0 0 C1.66666667 0 3.33333333 0 5 0 C4.25 4.75 4.25 4.75 2 7 C2 6.01 2 5.02 2 4 C1.01 3.67 0.02 3.34 -1 3 C-0.67 2.01 -0.34 1.02 0 0 Z " transform="translate(56,186)" style="fill: #4664AD;"/><path d="M0 0 C2.31 0 4.62 0 7 0 C7 0.99 7 1.98 7 3 C4.69 3 2.38 3 0 3 C0 2.01 0 1.02 0 0 Z " transform="translate(93,175)" style="fill: #3558A9;"/><path d="M0 0 C0.99 0.33 1.98 0.66 3 1 C2.67 3.31 2.34 5.62 2 8 C1.34 8 0.68 8 0 8 C-1.125 2.25 -1.125 2.25 0 0 Z " transform="translate(50,197)" style="fill: #3259AE;"/><path d="M0 0 C0.99 0.66 1.98 1.32 3 2 C2.67 2.99 2.34 3.98 2 5 C1.01 5.33 0.02 5.66 -1 6 C-1.66 5.34 -2.32 4.68 -3 4 C-2 1 -2 1 0 0 Z " transform="translate(233,196)" style="fill: #4360A8;"/><path d="M0 0 C0.8971875 0.309375 0.8971875 0.309375 1.8125 0.625 C0.6059375 1.2746875 0.6059375 1.2746875 -0.625 1.9375 C-3.46596354 3.42974002 -3.46596354 3.42974002 -4.1875 6.625 C-5.1775 6.625 -6.1675 6.625 -7.1875 6.625 C-4.6484375 -0.796875 -4.6484375 -0.796875 0 0 Z " transform="translate(251.1875,179.375)" style="fill: #E2EEFB;"/><path d="M0 0 C0.928125 0.20625 1.85625 0.4125 2.8125 0.625 C2.4825 1.945 2.1525 3.265 1.8125 4.625 C0.8225 3.965 -0.1675 3.305 -1.1875 2.625 C-2.84299531 2.24000109 -4.5097433 1.89706865 -6.1875 1.625 C-3.1875 -0.375 -3.1875 -0.375 0 0 Z " transform="translate(201.1875,176.375)" style="fill: #3C5EAB;"/><path d="M0 0 C2.97 0 5.94 0 9 0 C8.67 0.66 8.34 1.32 8 2 C2.55072464 3.27536232 2.55072464 3.27536232 0 2 C0 1.34 0 0.68 0 0 Z " transform="translate(162,176)" style="fill: #3659AA;"/><path d="M0 0 C-3.08888522 2.05925681 -3.70935927 2.2390374 -7.1875 2.125 C-9.0746875 2.063125 -9.0746875 2.063125 -11 2 C-6.98764085 -0.6749061 -4.6342454 -1.48957888 0 0 Z " transform="translate(161,61)" style="fill: #33C5CE;"/><path d="M0 0 C-0.33 0.99 -0.66 1.98 -1 3 C-3.31 2.34 -5.62 1.68 -8 1 C-4.93251126 -0.86240388 -3.40254489 -1.2151946 0 0 Z " transform="translate(105,199)" style="fill: #3A5CAD;"/></svg>