<svg id="svg" version="1.1" xmlns="http://www.w3.org/2000/svg" style="display: block;" viewBox="0 0 400 400"><path d="M0 0 C132 0 264 0 400 0 C400 132 400 264 400 400 C268 400 136 400 0 400 C0 268 0 136 0 0 Z " transform="translate(0,0)" style="fill: #FDFDFD;"/><path d="M0 0 C0.97453125 0.81855469 1.9490625 1.63710937 2.953125 2.48046875 C3.85933594 3.19847656 4.76554688 3.91648438 5.69921875 4.65625 C8.28783496 6.75136919 10.14840584 8.67312784 11.953125 11.48046875 C12.203125 14.79296875 12.203125 14.79296875 11.953125 17.48046875 C11.293125 17.48046875 10.633125 17.48046875 9.953125 17.48046875 C9.623125 18.47046875 9.293125 19.46046875 8.953125 20.48046875 C5.75058353 22.08173949 3.49997936 21.88748482 -0.046875 21.48046875 C-2.71417126 19.80048564 -5.00023426 17.88169466 -7.046875 15.48046875 C-7.046875 14.82046875 -7.046875 14.16046875 -7.046875 13.48046875 C-7.57667969 13.23683594 -8.10648438 12.99320313 -8.65234375 12.7421875 C-11.08422358 11.46078916 -13.33285181 9.9927199 -15.61230469 8.45996094 C-36.17673279 -5.2764793 -59.02721445 -11.95121438 -83.796875 -11.83203125 C-85.02825195 -11.8263916 -86.25962891 -11.82075195 -87.52832031 -11.81494141 C-118.20792307 -11.40668846 -145.58810074 1.90908695 -167.046875 23.48046875 C-167.95566406 24.38925781 -168.86445313 25.29804687 -169.80078125 26.234375 C-175.98939567 32.72533394 -180.69456472 39.65537756 -185.046875 47.48046875 C-185.665625 48.58261719 -186.284375 49.68476563 -186.921875 50.8203125 C-195.61895902 67.18357618 -199.44610585 84.7542834 -199.359375 103.23046875 C-199.35446045 104.46821045 -199.3495459 105.70595215 -199.34448242 106.98120117 C-199.2306281 115.86359019 -198.55677518 123.92028074 -196.046875 132.48046875 C-195.72976562 133.65480469 -195.41265625 134.82914063 -195.0859375 136.0390625 C-186.87764232 163.54558357 -168.43399248 187.4417463 -144.046875 202.48046875 C-143.19609375 203.00979004 -143.19609375 203.00979004 -142.328125 203.54980469 C-131.5973372 210.16672462 -120.62029445 214.76976996 -108.359375 217.73046875 C-107.68285889 217.89385742 -107.00634277 218.05724609 -106.30932617 218.22558594 C-83.83718096 223.31034585 -55.03620701 222.97513476 -34.046875 212.48046875 C-34.2634375 211.89523437 -34.48 211.31 -34.703125 210.70703125 C-39.36076519 196.34597399 -38.392192 180.97723116 -31.5390625 167.51953125 C-24.53180073 155.62348219 -13.0710045 146.47923975 0.37890625 142.953125 C7.58155199 141.63063618 13.85548004 141.60045641 20.296875 145.3359375 C23.72085779 147.70203882 25.63087695 149.51372459 26.953125 153.48046875 C27.04710729 155.29101002 27.08304487 157.10499656 27.078125 158.91796875 C27.08070313 159.86542969 27.08328125 160.81289062 27.0859375 161.7890625 C26.96785975 164.18187334 26.63425135 166.19383028 25.953125 168.48046875 C26.448125 168.31546875 26.943125 168.15046875 27.453125 167.98046875 C32.64641394 166.94181096 36.41758934 166.50033961 40.890625 169.35546875 C44.11605777 172.67864191 44.06828947 174.57632401 44.015625 179.10546875 C44.00660156 180.10835937 43.99757813 181.11125 43.98828125 182.14453125 C43.97087891 183.30082031 43.97087891 183.30082031 43.953125 184.48046875 C44.613125 184.15046875 45.273125 183.82046875 45.953125 183.48046875 C47.90651923 183.30677043 49.86755204 183.21350773 51.828125 183.16796875 C53.40207031 183.11189453 53.40207031 183.11189453 55.0078125 183.0546875 C57.953125 183.48046875 57.953125 183.48046875 60.3515625 185.328125 C61.953125 187.48046875 61.953125 187.48046875 61.703125 190.23046875 C61.455625 190.97296875 61.208125 191.71546875 60.953125 192.48046875 C57.953125 188.73046875 57.953125 188.73046875 57.953125 186.48046875 C57.293125 186.48046875 56.633125 186.48046875 55.953125 186.48046875 C55.953125 187.14046875 55.953125 187.80046875 55.953125 188.48046875 C54.963125 188.48046875 53.973125 188.48046875 52.953125 188.48046875 C52.953125 193.43046875 52.953125 198.38046875 52.953125 203.48046875 C49.94695231 200.47429606 50.35727184 197.65665277 49.953125 193.48046875 C46.19460872 193.03829036 43.64631118 193.6630705 40.5546875 195.890625 C37.6785401 198.74572742 35.75631337 202.22448551 33.68359375 205.68359375 C32.17359976 208.1241258 30.58118116 210.26704512 28.765625 212.48046875 C23.86714075 218.87607688 21.23822185 226.43780826 21.953125 234.48046875 C22.57960938 234.32449219 23.20609375 234.16851562 23.8515625 234.0078125 C24.66882813 233.81316406 25.48609375 233.61851562 26.328125 233.41796875 C27.14023437 233.22074219 27.95234375 233.02351563 28.7890625 232.8203125 C30.953125 232.48046875 30.953125 232.48046875 32.953125 233.48046875 C33.283125 234.14046875 33.613125 234.80046875 33.953125 235.48046875 C33.293125 235.48046875 32.633125 235.48046875 31.953125 235.48046875 C31.293125 237.13046875 30.633125 238.78046875 29.953125 240.48046875 C28.633125 240.48046875 27.313125 240.48046875 25.953125 240.48046875 C26.283125 241.47046875 26.613125 242.46046875 26.953125 243.48046875 C25.303125 244.14046875 23.653125 244.80046875 21.953125 245.48046875 C23.02713608 248.39564167 23.73122676 250.25857051 25.953125 252.48046875 C27.98779934 252.7573294 27.98779934 252.7573294 30.3046875 252.67578125 C31.15546875 252.66933594 32.00625 252.66289062 32.8828125 252.65625 C33.77226562 252.63949219 34.66171875 252.62273437 35.578125 252.60546875 C36.92390625 252.59193359 36.92390625 252.59193359 38.296875 252.578125 C40.51589086 252.55451845 42.73437577 252.52159185 44.953125 252.48046875 C44.77394531 251.2996875 44.59476562 250.11890625 44.41015625 248.90234375 C44.19440432 247.34517765 43.97961058 245.78787857 43.765625 244.23046875 C43.64509766 243.45316406 43.52457031 242.67585938 43.40039062 241.875 C42.62505836 236.0224919 42.62505836 236.0224919 44.390625 233.10546875 C45.1640625 232.30109375 45.1640625 232.30109375 45.953125 231.48046875 C46.20437326 228.81285111 46.20437326 228.81285111 45.953125 226.48046875 C46.943125 226.48046875 47.933125 226.48046875 48.953125 226.48046875 C48.7675 227.40859375 48.581875 228.33671875 48.390625 229.29296875 C47.66785152 234.32140714 47.96306429 239.50433751 48.953125 244.48046875 C49.613125 244.81046875 50.273125 245.14046875 50.953125 245.48046875 C50.953125 244.82046875 50.953125 244.16046875 50.953125 243.48046875 C51.63375 242.98546875 52.314375 242.49046875 53.015625 241.98046875 C60.83406006 235.32648146 66.25968313 225.27305491 68.43359375 215.26953125 C68.68149444 213.22170009 68.68149444 213.22170009 67.953125 210.48046875 C65.66807663 208.50918887 65.66807663 208.50918887 62.953125 207.48046875 C62.293125 207.15046875 61.633125 206.82046875 60.953125 206.48046875 C61.283125 205.16046875 61.613125 203.84046875 61.953125 202.48046875 C62.943125 202.81046875 63.933125 203.14046875 64.953125 203.48046875 C65.30375 202.98546875 65.654375 202.49046875 66.015625 201.98046875 C67.953125 200.48046875 67.953125 200.48046875 71.328125 199.98046875 C74.953125 200.48046875 74.953125 200.48046875 77.890625 202.23046875 C81.08702305 207.26721719 80.79365455 211.67876481 79.953125 217.48046875 C76.57129 230.00964599 69.67894364 240.04827549 60.87109375 249.38671875 C58.80972069 251.52982166 58.80972069 251.52982166 56.953125 254.48046875 C64.88732902 252.1141272 69.77294647 248.15833486 74.140625 241.10546875 C75.953125 238.48046875 75.953125 238.48046875 78.078125 237.48046875 C79.953125 237.48046875 79.953125 237.48046875 81.953125 239.48046875 C81.953125 246.4316569 77.3887401 251.01005915 72.765625 255.69921875 C67.48721794 260.62097668 63.66257563 263.09000026 56.390625 263.85546875 C52.953125 263.48046875 52.953125 263.48046875 50.640625 261.29296875 C49.75375 260.69484375 48.866875 260.09671875 47.953125 259.48046875 C45.82471176 259.84946014 45.82471176 259.84946014 43.515625 260.73046875 C36.50718368 263.19232781 28.4003156 264.38930855 21.38671875 261.37890625 C16.74951805 258.18495955 14.5660548 254.82329871 12.953125 249.48046875 C12.953125 248.49046875 12.953125 247.50046875 12.953125 246.48046875 C11.7775 246.60421875 10.601875 246.72796875 9.390625 246.85546875 C4.82464407 246.86356446 2.63697195 245.24490357 -0.5703125 242.1328125 C-3.84094722 238.4728165 -5.046875 236.44825343 -5.046875 231.48046875 C-6.243125 231.39796875 -7.439375 231.31546875 -8.671875 231.23046875 C-12.97309248 230.70611538 -15.56640661 229.09082004 -19.046875 226.48046875 C-20.9002347 225.14490373 -20.9002347 225.14490373 -23.046875 224.48046875 C-25.19909 225.16403178 -25.19909 225.16403178 -27.359375 226.54296875 C-53.50694821 240.67887982 -91.08992037 241.82620402 -119.234375 233.85546875 C-121.51555794 233.09413799 -123.78530588 232.29822497 -126.046875 231.48046875 C-126.80162109 231.20960449 -127.55636719 230.93874023 -128.33398438 230.65966797 C-147.57749095 223.65754885 -164.73729299 213.29781012 -179.046875 198.48046875 C-179.88605469 197.62710938 -180.72523438 196.77375 -181.58984375 195.89453125 C-207.26919805 168.81172627 -218.96150777 134.01148158 -218.3046875 96.96875 C-217.20685916 65.3701455 -203.12582528 35.62506227 -182.046875 12.48046875 C-181.31726563 11.67867187 -180.58765625 10.876875 -179.8359375 10.05078125 C-167.22479268 -3.12294253 -151.32788976 -14.51444418 -134.046875 -20.51953125 C-132.98082031 -20.92816406 -131.91476563 -21.33679688 -130.81640625 -21.7578125 C-87.36162289 -38.10761445 -35.7817723 -29.64525841 0 0 Z " transform="translate(298.046875,94.51953125)" style="fill: #F29037;"/><path d="M0 0 C1.52384778 1.52384778 1.16908901 2.87905372 1.1875 5 C1.14851868 9.85707274 0.23915513 14.31997662 -1 19 C-0.01 18.34 0.98 17.68 2 17 C4.6875 17.875 4.6875 17.875 7 19 C7 16.69 7 14.38 7 12 C9.31 12.33 11.62 12.66 14 13 C14 13.66 14 14.32 14 15 C14.66 14.67 15.32 14.34 16 14 C19.77396601 12.74201133 23.06073902 12.33151935 27 13 C29.8100346 14.79363911 31.50940468 16.01880935 33 19 C33.07033769 20.87379605 33.0843022 22.75001102 33.0625 24.625 C33.05347656 25.62789063 33.04445313 26.63078125 33.03515625 27.6640625 C33.02355469 28.43492187 33.01195312 29.20578125 33 30 C33.99 29.505 33.99 29.505 35 29 C36.95339423 28.82630168 38.91442704 28.73303898 40.875 28.6875 C41.92429687 28.65011719 42.97359375 28.61273438 44.0546875 28.57421875 C47 29 47 29 49.3984375 30.84765625 C51 33 51 33 50.75 35.75 C50.37875 36.86375 50.37875 36.86375 50 38 C47 34.25 47 34.25 47 32 C46.34 32 45.68 32 45 32 C45 32.66 45 33.32 45 34 C44.01 34 43.02 34 42 34 C42 38.95 42 43.9 42 49 C38.99382731 45.99382731 39.40414684 43.17618402 39 39 C35.24148372 38.55782161 32.69318618 39.18260175 29.6015625 41.41015625 C26.7254151 44.26525867 24.80318837 47.74401676 22.73046875 51.203125 C21.22047476 53.64365705 19.62805616 55.78657637 17.8125 58 C12.91401575 64.39560813 10.28509685 71.95733951 11 80 C11.62648438 79.84402344 12.25296875 79.68804687 12.8984375 79.52734375 C13.71570313 79.33269531 14.53296875 79.13804687 15.375 78.9375 C16.18710937 78.74027344 16.99921875 78.54304688 17.8359375 78.33984375 C20 78 20 78 22 79 C22.33 79.66 22.66 80.32 23 81 C22.34 81 21.68 81 21 81 C20.34 82.65 19.68 84.3 19 86 C17.68 86 16.36 86 15 86 C15.33 86.99 15.66 87.98 16 89 C14.35 89.66 12.7 90.32 11 91 C12.07401108 93.91517292 12.77810176 95.77810176 15 98 C17.03467434 98.27686065 17.03467434 98.27686065 19.3515625 98.1953125 C20.20234375 98.18886719 21.053125 98.18242187 21.9296875 98.17578125 C22.81914062 98.15902344 23.70859375 98.14226562 24.625 98.125 C25.5221875 98.11597656 26.419375 98.10695313 27.34375 98.09765625 C29.56276586 98.0740497 31.78125077 98.0411231 34 98 C33.82082031 96.81921875 33.64164062 95.6384375 33.45703125 94.421875 C33.24127932 92.8647089 33.02648558 91.30740982 32.8125 89.75 C32.69197266 88.97269531 32.57144531 88.19539063 32.44726562 87.39453125 C31.67193336 81.54202315 31.67193336 81.54202315 33.4375 78.625 C33.953125 78.08875 34.46875 77.5525 35 77 C35.25124826 74.33238236 35.25124826 74.33238236 35 72 C35.99 72 36.98 72 38 72 C37.814375 72.928125 37.62875 73.85625 37.4375 74.8125 C36.71472652 79.84093839 37.00993929 85.02386876 38 90 C38.66 90.33 39.32 90.66 40 91 C40 90.34 40 89.68 40 89 C40.680625 88.505 41.36125 88.01 42.0625 87.5 C49.88093506 80.84601271 55.30655813 70.79258616 57.48046875 60.7890625 C57.72836944 58.74123134 57.72836944 58.74123134 57 56 C54.71495163 54.02872012 54.71495163 54.02872012 52 53 C51.34 52.67 50.68 52.34 50 52 C50.33 50.68 50.66 49.36 51 48 C52.485 48.495 52.485 48.495 54 49 C54.350625 48.505 54.70125 48.01 55.0625 47.5 C57 46 57 46 60.375 45.5 C64 46 64 46 66.9375 47.75 C70.13389805 52.78674844 69.84052955 57.19829606 69 63 C65.618165 75.52917724 58.72581864 85.56780674 49.91796875 94.90625 C47.85659569 97.04935291 47.85659569 97.04935291 46 100 C53.93420402 97.63365845 58.81982147 93.67786611 63.1875 86.625 C65 84 65 84 67.125 83 C69 83 69 83 71 85 C71 91.95118815 66.4356151 96.5295904 61.8125 101.21875 C56.53409294 106.14050793 52.70945063 108.60953151 45.4375 109.375 C42 109 42 109 39.6875 106.8125 C38.800625 106.214375 37.91375 105.61625 37 105 C34.87158676 105.36899139 34.87158676 105.36899139 32.5625 106.25 C25.55405868 108.71185906 17.4471906 109.9088398 10.43359375 106.8984375 C5.79639305 103.7044908 3.6129298 100.34282996 2 95 C2 94.01 2 93.02 2 92 C0.824375 92.12375 -0.35125 92.2475 -1.5625 92.375 C-6.12848093 92.38309571 -8.31615305 90.76443482 -11.5234375 87.65234375 C-14.79407222 83.99234775 -16 81.96778468 -16 77 C-17.19625 76.9175 -18.3925 76.835 -19.625 76.75 C-23.92621748 76.22564663 -26.51953161 74.61035129 -30 72 C-31.82087092 70.63643901 -31.82087092 70.63643901 -34 70 C-36.45710801 70.81855585 -36.45710801 70.81855585 -38.875 72.3125 C-42.62756219 74.35531492 -45.67416066 75.65848637 -50 76 C-49.01 75.505 -49.01 75.505 -48 75 C-48 74.01 -48 73.02 -48 72 C-45.69 72 -43.38 72 -41 72 C-41 71.01 -41 70.02 -41 69 C-41.66 68.67 -42.32 68.34 -43 68 C-42.01 65.03 -41.02 62.06 -40 59 C-37.525 58.505 -37.525 58.505 -35 58 C-35.02094727 57.25951416 -35.04189453 56.51902832 -35.06347656 55.75610352 C-35.14729899 52.35837718 -35.19886924 48.96086928 -35.25 45.5625 C-35.28351563 44.39783203 -35.31703125 43.23316406 -35.3515625 42.03320312 C-35.4338425 34.73085277 -34.67983641 29.34887239 -31 23 C-30.443125 22.030625 -29.88625 21.06125 -29.3125 20.0625 C-22.34592146 10.83649058 -12.90765507 -1.07563792 0 0 Z " transform="translate(309,249)" style="fill: #B08737;"/><path d="M0 0 C3.44145438 2.9890218 3.55332772 6.44348674 4 10.8125 C5.00498339 19.70441829 6.80037611 28.39245576 8.671875 37.140625 C9.73944915 42.42078906 10.45140162 46.75262491 9 52 C4.14420599 55.23719601 -0.92075981 53.58178349 -6.46289062 52.53466797 C-8.89601857 52.01958648 -11.32261762 51.47894499 -13.75 50.9375 C-27.81282627 47.82876349 -27.81282627 47.82876349 -41.5625 50.625 C-43.75244037 52.75878805 -45.70477191 54.95417564 -47.5859375 57.36328125 C-49.24538163 59.28401906 -51.06487757 60.85840738 -53 62.5 C-59.79233227 68.11196181 -59.79233227 68.11196181 -63 76 C-60.69 76.33 -58.38 76.66 -56 77 C-56 76.34 -56 75.68 -56 75 C-54.64453125 73.66796875 -54.64453125 73.66796875 -52.8125 72.1875 C-50.61930387 70.3715336 -48.58044112 68.58044112 -46.5625 66.5625 C-44.3834425 64.3834425 -42.17100003 62.30343536 -39.875 60.25 C-39.21242187 59.65703125 -38.54984375 59.0640625 -37.8671875 58.453125 C-34.15318069 55.5627264 -30.54526615 55.61480795 -26 56 C-21.71364862 58.26924485 -18.39798497 60.7574112 -16 65 C-15.11446896 71.02957093 -15.63703073 74.89538266 -19 80 C-21.80428979 83.25330531 -24.84946531 86.26531999 -27.875 89.3125 C-28.67808594 90.14845703 -29.48117188 90.98441406 -30.30859375 91.84570312 C-31.09105469 92.63525391 -31.87351563 93.42480469 -32.6796875 94.23828125 C-33.38851074 94.96055908 -34.09733398 95.68283691 -34.82763672 96.42700195 C-37 98 -37 98 -39.64501953 98.42260742 C-40.42216309 98.28314697 -41.19930664 98.14368652 -42 98 C-44.16454079 94.75318881 -44.48244195 93.7647831 -44 90 C-42.65478516 88.10302734 -42.65478516 88.10302734 -40.7890625 86.3359375 C-40.12132812 85.68882812 -39.45359375 85.04171875 -38.765625 84.375 C-37.70601562 83.385 -37.70601562 83.385 -36.625 82.375 C-35.24021805 81.0515368 -33.85732494 79.72609369 -32.4765625 78.3984375 C-31.549646 77.52711182 -31.549646 77.52711182 -30.60400391 76.63818359 C-27.64542495 73.61656033 -26.66210508 71.08298131 -26 67 C-29.47231843 66.69518171 -31.36158168 66.54550811 -34.25415039 68.60473633 C-34.94500732 69.33974365 -35.63586426 70.07475098 -36.34765625 70.83203125 C-37.11787109 71.63060547 -37.88808594 72.42917969 -38.68164062 73.25195312 C-39.46732422 74.09693359 -40.25300781 74.94191406 -41.0625 75.8125 C-42.63210151 77.46923041 -44.20618097 79.12173223 -45.78515625 80.76953125 C-46.81974976 81.87711792 -46.81974976 81.87711792 -47.87524414 83.00708008 C-50.77568315 85.7275539 -53.4462986 87.8424138 -57.46484375 88.25 C-63.58182432 87.63153751 -66.82001517 86.59798331 -71 82 C-73.33016542 78.08108544 -73.95188552 73.46095501 -73 69 C-69.07010178 62.61184149 -64.02185365 57.65414529 -58.75 52.375 C-57.37521484 50.96347656 -57.37521484 50.96347656 -55.97265625 49.5234375 C-50.00010033 43.52532142 -45.02598561 38.76117377 -36.4921875 37.46875 C-24.73014314 37.57036593 -13.49842948 39.60873369 -2 42 C-2.12117188 41.35450195 -2.24234375 40.70900391 -2.3671875 40.04394531 C-2.91516686 37.11330957 -3.45763911 34.1816805 -4 31.25 C-4.19078125 30.23421875 -4.3815625 29.2184375 -4.578125 28.171875 C-4.75859375 27.1921875 -4.9390625 26.2125 -5.125 25.203125 C-5.29257812 24.30239258 -5.46015625 23.40166016 -5.6328125 22.47363281 C-6 20 -6 20 -6 16 C-6.66 16 -7.32 16 -8 16 C-8.495 17.485 -8.495 17.485 -9 19 C-10.70703125 20.68359375 -10.70703125 20.68359375 -12.8125 22.4375 C-15.11870124 24.37094047 -17.14243005 26.16337564 -19.125 28.4375 C-21 30 -21 30 -24.125 30.375 C-27 30 -27 30 -29 28 C-29.42626953 25.7199707 -29.42626953 25.7199707 -29 23 C-26.98388672 20.32104492 -26.98388672 20.32104492 -24.1796875 17.48046875 C-23.68340851 16.97703445 -23.18712952 16.47360016 -22.67581177 15.95491028 C-21.62442693 14.89575425 -20.56661929 13.84294055 -19.50292969 12.79614258 C-17.88183408 11.19425311 -16.29217987 9.56524614 -14.703125 7.93164062 C-13.6762507 6.90447591 -12.64765857 5.87902508 -11.6171875 4.85546875 C-10.21895752 3.45784302 -10.21895752 3.45784302 -8.79248047 2.03198242 C-5.52617697 -0.3447831 -3.95171891 -0.57490979 0 0 Z " transform="translate(264,166)" style="fill: #EF953C;"/><path d="M0 0 C0.495 0.99 0.495 0.99 1 2 C1.99 1.34 2.98 0.68 4 0 C4.495 3.96 4.495 3.96 5 8 C5.66 7.67 6.32 7.34 7 7 C8.95339423 6.82630168 10.91442704 6.73303898 12.875 6.6875 C14.44894531 6.63142578 14.44894531 6.63142578 16.0546875 6.57421875 C19 7 19 7 21.3984375 8.84765625 C23 11 23 11 22.75 13.75 C22.37875 14.86375 22.37875 14.86375 22 16 C19 12.25 19 12.25 19 10 C18.34 10 17.68 10 17 10 C17 10.66 17 11.32 17 12 C16.01 12 15.02 12 14 12 C14 16.95 14 21.9 14 27 C10.99382731 23.99382731 11.40414684 21.17618402 11 17 C7.24148372 16.55782161 4.69318618 17.18260175 1.6015625 19.41015625 C-1.2745849 22.26525867 -3.19681163 25.74401676 -5.26953125 29.203125 C-6.77952524 31.64365705 -8.37194384 33.78657637 -10.1875 36 C-15.08598425 42.39560813 -17.71490315 49.95733951 -17 58 C-16.37351562 57.84402344 -15.74703125 57.68804687 -15.1015625 57.52734375 C-14.28429687 57.33269531 -13.46703125 57.13804687 -12.625 56.9375 C-11.81289063 56.74027344 -11.00078125 56.54304688 -10.1640625 56.33984375 C-8 56 -8 56 -6 57 C-5.67 57.66 -5.34 58.32 -5 59 C-5.66 59 -6.32 59 -7 59 C-7.66 60.65 -8.32 62.3 -9 64 C-10.32 64 -11.64 64 -13 64 C-12.67 64.99 -12.34 65.98 -12 67 C-14.475 67.99 -14.475 67.99 -17 69 C-15.92598892 71.91517292 -15.22189824 73.77810176 -13 76 C-10.96532566 76.27686065 -10.96532566 76.27686065 -8.6484375 76.1953125 C-7.79765625 76.18886719 -6.946875 76.18242187 -6.0703125 76.17578125 C-4.73613281 76.15064453 -4.73613281 76.15064453 -3.375 76.125 C-2.4778125 76.11597656 -1.580625 76.10695313 -0.65625 76.09765625 C1.56276586 76.0740497 3.78125077 76.0411231 6 76 C5.82082031 74.81921875 5.64164062 73.6384375 5.45703125 72.421875 C5.24127932 70.8647089 5.02648558 69.30740982 4.8125 67.75 C4.69197266 66.97269531 4.57144531 66.19539063 4.44726562 65.39453125 C3.67193336 59.54202315 3.67193336 59.54202315 5.4375 56.625 C5.953125 56.08875 6.46875 55.5525 7 55 C7.25124826 52.33238236 7.25124826 52.33238236 7 50 C7.99 50 8.98 50 10 50 C9.7215625 51.3921875 9.7215625 51.3921875 9.4375 52.8125 C8.71472652 57.84093839 9.00993929 63.02386876 10 68 C10.99 68.495 10.99 68.495 12 69 C12 68.34 12 67.68 12 67 C12.680625 66.505 13.36125 66.01 14.0625 65.5 C21.88093506 58.84601271 27.30655813 48.79258616 29.48046875 38.7890625 C29.72836944 36.74123134 29.72836944 36.74123134 29 34 C26.71495163 32.02872012 26.71495163 32.02872012 24 31 C23.34 30.67 22.68 30.34 22 30 C22.33 28.68 22.66 27.36 23 26 C24.485 26.495 24.485 26.495 26 27 C26.350625 26.505 26.70125 26.01 27.0625 25.5 C29 24 29 24 32.375 23.5 C36 24 36 24 38.9375 25.75 C42.13389805 30.78674844 41.84052955 35.19829606 41 41 C37.618165 53.52917724 30.72581864 63.56780674 21.91796875 72.90625 C19.85659569 75.04935291 19.85659569 75.04935291 18 78 C25.93420402 75.63365845 30.81982147 71.67786611 35.1875 64.625 C37 62 37 62 39.125 61 C41 61 41 61 43 63 C43 69.95118815 38.4356151 74.5295904 33.8125 79.21875 C28.53409294 84.14050793 24.70945063 86.60953151 17.4375 87.375 C14 87 14 87 11.6875 84.8125 C10.800625 84.214375 9.91375 83.61625 9 83 C6.87158676 83.36899139 6.87158676 83.36899139 4.5625 84.25 C-2.44594132 86.71185906 -10.5528094 87.9088398 -17.56640625 84.8984375 C-22.20360695 81.7044908 -24.3870702 78.34282996 -26 73 C-26 72.01 -26 71.02 -26 70 C-27.175625 70.12375 -28.35125 70.2475 -29.5625 70.375 C-34.06992802 70.36699391 -36.39200807 68.87627428 -39.578125 65.78515625 C-41.82455253 62.96477883 -42.60487833 60.55609501 -43 57 C-41.625 54.5625 -41.625 54.5625 -40 53 C-39.67 53.99 -39.34 54.98 -39 56 C-38.319375 56.103125 -37.63875 56.20625 -36.9375 56.3125 C-33.37084011 57.14725019 -30.33777806 58.49472754 -27 60 C-27.04125 58.9275 -27.0825 57.855 -27.125 56.75 C-27.0114175 53.34252515 -26.78726636 51.79260369 -25 49 C-25.99 49 -26.98 49 -28 49 C-27.50168276 45.31245243 -26.89932357 43.39509338 -24 41 C-24.66 39.68 -25.32 38.36 -26 37 C-25.443125 36.51273437 -24.88625 36.02546875 -24.3125 35.5234375 C-16.12482835 27.91664796 -7.38245601 16.31017367 -6.5 4.75 C-6.335 3.5125 -6.17 2.275 -6 1 C-4 0 -4 0 0 0 Z " transform="translate(337,271)" style="fill: #447E47;"/><path d="M0 0 C3.42398279 2.36610132 5.33400195 4.17778709 6.65625 8.14453125 C6.72676114 10.88318412 6.74982765 13.59480713 6.71875 16.33203125 C6.71423828 17.08162109 6.70972656 17.83121094 6.70507812 18.60351562 C6.69331354 20.45055508 6.67537865 22.29755338 6.65625 24.14453125 C5.99625 24.14453125 5.33625 24.14453125 4.65625 24.14453125 C4.65625 23.48453125 4.65625 22.82453125 4.65625 22.14453125 C3.00625 22.47453125 1.35625 22.80453125 -0.34375 23.14453125 C-0.34375 22.48453125 -0.34375 21.82453125 -0.34375 21.14453125 C-1.00375 21.14453125 -1.66375 21.14453125 -2.34375 21.14453125 C-2.34375 23.45453125 -2.34375 25.76453125 -2.34375 28.14453125 C-3.2925 27.93828125 -4.24125 27.73203125 -5.21875 27.51953125 C-6.765625 27.33390625 -6.765625 27.33390625 -8.34375 27.14453125 C-9.00375 27.80453125 -9.66375 28.46453125 -10.34375 29.14453125 C-11.48045623 25.73441256 -10.87828078 24.49898342 -9.82421875 21.1953125 C-8.96974164 17.54815411 -9.19182618 13.86666481 -9.34375 10.14453125 C-19.45987247 10.98754146 -26.40724881 15.89669698 -33.34375 23.14453125 C-41.76244925 33.40329436 -43.81143764 41.56910793 -43.53125 54.64453125 C-43.51771484 55.84851563 -43.50417969 57.0525 -43.49023438 58.29296875 C-43.45510352 61.24396098 -43.40590996 64.19400537 -43.34375 67.14453125 C-44.30410156 67.39460938 -45.26445312 67.6446875 -46.25390625 67.90234375 C-49.3864684 68.79585567 -49.3864684 68.79585567 -50.40234375 70.94921875 C-50.52738281 71.63242187 -50.65242188 72.315625 -50.78125 73.01953125 C-50.92433594 73.69757813 -51.06742187 74.375625 -51.21484375 75.07421875 C-51.35432053 77.31430041 -50.999649 79.0092688 -50.34375 81.14453125 C-52.65375 81.14453125 -54.96375 81.14453125 -57.34375 81.14453125 C-57.34375 82.13453125 -57.34375 83.12453125 -57.34375 84.14453125 C-58.00375 84.14453125 -58.66375 84.14453125 -59.34375 84.14453125 C-59.34375 84.80453125 -59.34375 85.46453125 -59.34375 86.14453125 C-74.06229466 91.47733729 -88.42903164 92.30496289 -103.96875 92.20703125 C-105.36848797 92.20200322 -106.7682277 92.19744263 -108.16796875 92.19335938 C-111.55994169 92.18166292 -114.95182233 92.16527211 -118.34375 92.14453125 C-118.34375 91.81453125 -118.34375 91.48453125 -118.34375 91.14453125 C-117.4966748 91.12471191 -116.64959961 91.10489258 -115.77685547 91.08447266 C-112.61205998 91.0060353 -109.4476258 90.91933076 -106.28320312 90.82714844 C-104.91773079 90.78903923 -103.55216423 90.75415589 -102.18652344 90.72265625 C-100.21527393 90.67661247 -98.24433796 90.61772076 -96.2734375 90.55859375 C-94.49815674 90.5114624 -94.49815674 90.5114624 -92.68701172 90.46337891 C-89.30015484 90.14037357 -86.51509912 89.34803924 -83.34375 88.14453125 C-83.34375 87.48453125 -83.34375 86.82453125 -83.34375 86.14453125 C-80.86875 85.64953125 -80.86875 85.64953125 -78.34375 85.14453125 C-78.34375 82.83453125 -78.34375 80.52453125 -78.34375 78.14453125 C-77.35375 77.81453125 -76.36375 77.48453125 -75.34375 77.14453125 C-86.89375 77.14453125 -98.44375 77.14453125 -110.34375 77.14453125 C-110.34375 76.81453125 -110.34375 76.48453125 -110.34375 76.14453125 C-109.71098145 76.12994873 -109.07821289 76.11536621 -108.42626953 76.1003418 C-80.63022622 75.53061295 -80.63022622 75.53061295 -54.34375 67.14453125 C-54.5603125 66.55929687 -54.776875 65.9740625 -55 65.37109375 C-59.65764019 51.01003649 -58.689067 35.64129366 -51.8359375 22.18359375 C-44.82867573 10.28754469 -33.3678795 1.14330225 -19.91796875 -2.3828125 C-12.71532301 -3.70530132 -6.44139496 -3.73548109 0 0 Z " transform="translate(318.34375,239.85546875)" style="fill: #EF8F37;"/><path d="M0 0 C0.66 0 1.32 0 2 0 C3.0260734 1.31337396 4.02727325 2.64664105 5 4 C5.33 4 5.66 4 6 4 C6 7.63 6 11.26 6 15 C7.65 14.34 9.3 13.68 11 13 C13.3320802 12.92353835 15.66845878 12.90856701 18 13 C18 13.33 18 13.66 18 14 C16.02 14 14.04 14 12 14 C11.67 14.99 11.34 15.98 11 17 C8.9375 17.6875 8.9375 17.6875 7 18 C6.505 17.01 6.505 17.01 6 16 C6.19471111 17.94999129 6.19471111 17.94999129 7 20 C8.91666667 21.16666667 8.91666667 21.16666667 11 22 C13 24 13 24 13.4375 26.875 C13.05119429 37.8279031 5.39667581 47.9645872 -1.6171875 55.80859375 C-3 57 -3 57 -5 57 C-5 57.66 -5 58.32 -5 59 C-6.485 58.505 -6.485 58.505 -8 58 C-9.51708428 45.33029613 -9.51708428 45.33029613 -7 40 C-7.99 40 -8.98 40 -10 40 C-9.773125 40.721875 -9.54625 41.44375 -9.3125 42.1875 C-9 45 -9 45 -10.5 47.375 C-12.55784519 50.97622908 -11.739361 52.96712182 -11 57 C-10.90423472 60.0022415 -10.93871801 62.99718268 -11 66 C-14.67193138 67.22397713 -18.11083559 67.26111238 -21.9375 67.3125 C-23.01161133 67.35600586 -23.01161133 67.35600586 -24.10742188 67.40039062 C-27.59545306 67.4424151 -29.62289478 67.26650337 -32.50390625 65.23046875 C-34 63 -34 63 -34 59 C-32 57.375 -32 57.375 -30 56 C-30 55.34 -30 54.68 -30 54 C-29.38125 53.95875 -28.7625 53.9175 -28.125 53.875 C-27.42375 53.58625 -26.7225 53.2975 -26 53 C-24.6954344 50.00384054 -24.6954344 50.00384054 -24 47 C-27.63 47.66 -31.26 48.32 -35 49 C-36.00768351 35.64819353 -28.98040566 26.674954 -21.203125 16.63256836 C-19.85042194 14.85392644 -19.85042194 14.85392644 -18.33984375 12.19921875 C-16.4354568 9.07335913 -14.19132022 7.72331292 -11 6 C-8.1875 5.6875 -8.1875 5.6875 -6 6 C-4.18585949 7.81414051 -4.3649546 10.54959054 -4 13 C-4.020625 11.9275 -4.04125 10.855 -4.0625 9.75 C-4.0142016 6.85209576 -3.86844115 4.71387859 -3 2 C-2.01 2 -1.02 2 0 2 C0 1.34 0 0.68 0 0 Z " transform="translate(354,281)" style="fill: #487E48;"/><path d="M0 0 C0.495 0.99 0.495 0.99 1 2 C1.99 1.34 2.98 0.68 4 0 C4.495 3.96 4.495 3.96 5 8 C5.66 7.67 6.32 7.34 7 7 C8.95339423 6.82630168 10.91442704 6.73303898 12.875 6.6875 C14.44894531 6.63142578 14.44894531 6.63142578 16.0546875 6.57421875 C19 7 19 7 21.3984375 8.84765625 C23 11 23 11 22.75 13.75 C22.37875 14.86375 22.37875 14.86375 22 16 C19 12.25 19 12.25 19 10 C18.34 10 17.68 10 17 10 C17 10.66 17 11.32 17 12 C16.01 12 15.02 12 14 12 C14 16.95 14 21.9 14 27 C10.99382731 23.99382731 11.40414684 21.17618402 11 17 C7.24148372 16.55782161 4.69318618 17.18260175 1.6015625 19.41015625 C-1.2745849 22.26525867 -3.19681163 25.74401676 -5.26953125 29.203125 C-6.77952524 31.64365705 -8.37194384 33.78657637 -10.1875 36 C-15.08598425 42.39560813 -17.71490315 49.95733951 -17 58 C-15.02 57.505 -15.02 57.505 -13 57 C-12.67 57.99 -12.34 58.98 -12 60 C-13.98 60.495 -13.98 60.495 -16 61 C-16 61.66 -16 62.32 -16 63 C-17.65 63 -19.3 63 -21 63 C-21 63.99 -21 64.98 -21 66 C-23.97 66.495 -23.97 66.495 -27 67 C-27.33 67.99 -27.66 68.98 -28 70 C-31.02701211 70.44297738 -33.19525123 70.46485488 -35.88671875 68.91015625 C-39.20693393 66.28600295 -40.86852084 64.29329967 -42.625 60.375 C-43 57 -43 57 -41.625 54.5625 C-41.08875 54.046875 -40.5525 53.53125 -40 53 C-39.67 53.99 -39.34 54.98 -39 56 C-38.319375 56.103125 -37.63875 56.20625 -36.9375 56.3125 C-33.37084011 57.14725019 -30.33777806 58.49472754 -27 60 C-27.04125 58.9275 -27.0825 57.855 -27.125 56.75 C-27.0114175 53.34252515 -26.78726636 51.79260369 -25 49 C-25.99 49 -26.98 49 -28 49 C-27.50168276 45.31245243 -26.89932357 43.39509338 -24 41 C-24.66 39.68 -25.32 38.36 -26 37 C-25.443125 36.51273437 -24.88625 36.02546875 -24.3125 35.5234375 C-16.12482835 27.91664796 -7.38245601 16.31017367 -6.5 4.75 C-6.335 3.5125 -6.17 2.275 -6 1 C-4 0 -4 0 0 0 Z " transform="translate(337,271)" style="fill: #7B8443;"/><path d="M0 0 C1 1 1 1 1.3125 4.875 C1.09229544 20.31378634 -10.40717226 34.29627768 -20.625 44.875 C-23.57158632 47.70748161 -26.38393083 50.07142978 -30 52 C-32.29971238 51.81353683 -33.37457684 51.62542316 -35 50 C-36.21432354 31.04858999 -36.21432354 31.04858999 -31 23 C-30.443125 22.030625 -29.88625 21.06125 -29.3125 20.0625 C-22.34592146 10.83649058 -12.90765507 -1.07563792 0 0 Z " transform="translate(309,249)" style="fill: #FCF9F2;"/><path d="M0 0 C2.21227784 -0.00216843 4.4240421 -0.02027441 6.63623047 -0.03930664 C13.54335411 -0.06601927 19.99016404 -0.01484608 26.61669922 2.18530273 C26.61669922 3.17530273 26.61669922 4.16530273 26.61669922 5.18530273 C24.96669922 5.18530273 23.31669922 5.18530273 21.61669922 5.18530273 C21.61669922 5.84530273 21.61669922 6.50530273 21.61669922 7.18530273 C25.41217842 6.21754175 25.41217842 6.21754175 28.61669922 4.18530273 C33.84466452 3.91947399 37.6878707 4.21377133 42.61669922 6.18530273 C42.61669922 6.51530273 42.61669922 6.84530273 42.61669922 7.18530273 C38.43932448 8.77668359 35.08509137 9.39808331 30.61669922 9.18530273 C30.61669922 9.84530273 30.61669922 10.50530273 30.61669922 11.18530273 C28.79138672 11.15436523 28.79138672 11.15436523 26.92919922 11.12280273 C23.696926 11.11706157 20.76735181 11.39763959 17.61669922 12.18530273 C17.61669922 12.84530273 17.61669922 13.50530273 17.61669922 14.18530273 C6.72669922 14.18530273 -4.16330078 14.18530273 -15.38330078 14.18530273 C-15.38330078 13.85530273 -15.38330078 13.52530273 -15.38330078 13.18530273 C-13.73330078 13.18530273 -12.08330078 13.18530273 -10.38330078 13.18530273 C-10.38330078 12.52530273 -10.38330078 11.86530273 -10.38330078 11.18530273 C-15.66330078 11.18530273 -20.94330078 11.18530273 -26.38330078 11.18530273 C-26.38330078 10.52530273 -26.38330078 9.86530273 -26.38330078 9.18530273 C-29.68330078 9.51530273 -32.98330078 9.84530273 -36.38330078 10.18530273 C-36.38330078 9.52530273 -36.38330078 8.86530273 -36.38330078 8.18530273 C-33.74330078 7.52530273 -31.10330078 6.86530273 -28.38330078 6.18530273 C-28.05330078 4.86530273 -27.72330078 3.54530273 -27.38330078 2.18530273 C-26.11873047 2.09442383 -26.11873047 2.09442383 -24.82861328 2.00170898 C-23.73291016 1.91791992 -22.63720703 1.83413086 -21.50830078 1.74780273 C-20.41775391 1.6665918 -19.32720703 1.58538086 -18.20361328 1.50170898 C-4.81329815 -0.00052859 -4.81329815 -0.00052859 0 0 Z " transform="translate(213.38330078125,66.814697265625)" style="fill: #F68E30;"/><path d="M0 0 C10.16108634 2.54685684 10.16108634 2.54685684 20.28173828 1.51098633 C20.28173828 2.50098633 20.28173828 3.49098633 20.28173828 4.51098633 C18.38941883 4.90333326 16.49263171 5.27416949 14.59423828 5.63598633 C13.53849609 5.84481445 12.48275391 6.05364258 11.39501953 6.26879883 C7.986169 6.53397917 6.35410192 5.87534147 3.28173828 4.51098633 C-0.41258683 4.65711527 -0.41258683 4.65711527 -3.71826172 5.51098633 C-5.0726584 8.21977968 -4.78327623 10.520319 -4.71826172 13.51098633 C-4.05826172 13.51098633 -3.39826172 13.51098633 -2.71826172 13.51098633 C-2.71826172 15.82098633 -2.71826172 18.13098633 -2.71826172 20.51098633 C-1.72826172 20.51098633 -0.73826172 20.51098633 0.28173828 20.51098633 C0.28173828 21.50098633 0.28173828 22.49098633 0.28173828 23.51098633 C-0.70826172 23.51098633 -1.69826172 23.51098633 -2.71826172 23.51098633 C-2.71826172 24.83098633 -2.71826172 26.15098633 -2.71826172 27.51098633 C-4.21826172 29.13598633 -4.21826172 29.13598633 -5.71826172 30.51098633 C-5.71826172 31.17098633 -5.71826172 31.83098633 -5.71826172 32.51098633 C-6.89388672 32.60379883 -6.89388672 32.60379883 -8.09326172 32.69848633 C-8.95951172 32.96661133 -9.82576172 33.23473633 -10.71826172 33.51098633 C-11.90217395 35.88723978 -11.90217395 35.88723978 -12.71826172 38.51098633 C-14.34326172 40.32348633 -14.34326172 40.32348633 -15.71826172 41.51098633 C-16.70826172 40.85098633 -17.69826172 40.19098633 -18.71826172 39.51098633 C-17.86361328 38.67954102 -17.00896484 37.8480957 -16.12841797 36.99145508 C-15.01226995 35.89406585 -13.8963989 34.79639488 -12.78076172 33.69848633 C-12.21679688 33.1512793 -11.65283203 32.60407227 -11.07177734 32.0402832 C-6.97538338 27.99294785 -5.5707656 25.39483347 -5.34326172 19.69848633 C-5.37512287 16.06100518 -5.66741993 13.86939407 -7.96826172 11.01098633 C-11.61155171 7.69890452 -13.1841004 6.6530383 -18.09326172 6.19848633 C-25.03918241 6.79727259 -28.66799647 10.15225184 -33.20263672 15.08520508 C-34.71826172 16.51098633 -34.71826172 16.51098633 -36.71826172 16.51098633 C-36.96576172 17.08848633 -37.21326172 17.66598633 -37.46826172 18.26098633 C-38.9012616 20.84038612 -40.50250848 22.57220225 -42.71826172 24.51098633 C-43.37826172 24.51098633 -44.03826172 24.51098633 -44.71826172 24.51098633 C-44.71826172 25.17098633 -44.71826172 25.83098633 -44.71826172 26.51098633 C-47.02826172 26.18098633 -49.33826172 25.85098633 -51.71826172 25.51098633 C-51.36602785 20.07537731 -49.34549669 17.49671311 -45.46826172 13.94848633 C-44.51435547 13.03969727 -43.56044922 12.1309082 -42.57763672 11.19458008 C-41.63404297 10.30899414 -40.69044922 9.4234082 -39.71826172 8.51098633 C-38.40148437 7.1903418 -38.40148437 7.1903418 -37.05810547 5.84301758 C-25.80320241 -5.3743065 -14.61010459 -3.26451298 0 0 Z M-2.71826172 7.51098633 C-2.05826172 7.51098633 -1.39826172 7.51098633 -0.71826172 7.51098633 C-0.71826172 9.49098633 -0.71826172 11.47098633 -0.71826172 13.51098633 C-1.37826172 13.51098633 -2.03826172 13.51098633 -2.71826172 13.51098633 C-2.71826172 11.53098633 -2.71826172 9.55098633 -2.71826172 7.51098633 Z " transform="translate(252.71826171875,216.489013671875)" style="fill: #FDF7EC;"/><path d="M0 0 C4.01125177 2.04209181 6.63010473 4.1946253 9 8 C9.87570205 13.22265547 9.61426036 17.7259785 7.3125 22.5 C3.64995376 26.45950944 1.50831996 27.85635048 -3.9375 28.375 C-7.91227842 28.195349 -10.66810329 27.27174776 -14 25 C-17.04455752 21.63496275 -18.26250114 19.02877522 -18.4375 14.5625 C-18.16424499 9.16115938 -17.00199121 4.88065841 -12.9375 1.0625 C-8.57960314 -0.51376057 -4.57752643 -0.66755594 0 0 Z " transform="translate(160,341)" style="fill: #F48F33;"/><path d="M0 0 C1 1 1 1 1.27734375 4.5703125 C1.20890954 9.2975375 -0.25487329 12.74296569 -2.4375 16.875 C-2.79658447 17.56899902 -3.15566895 18.26299805 -3.52563477 18.97802734 C-8.51106262 28.23837077 -15.4380884 36.27139043 -25 41 C-27.765625 41.65234375 -27.765625 41.65234375 -30 42 C-29.20700838 29.70862985 -24.47244403 21.61342519 -17 12 C-16.37351562 11.14535156 -15.74703125 10.29070312 -15.1015625 9.41015625 C-7.49797247 -0.83310805 -7.49797247 -0.83310805 0 0 Z " transform="translate(330,271)" style="fill: #F8F6EA;"/><path d="M0 0 C1.54925616 1.54925616 1.3947463 2.96204798 1.5625 5.125 C1.47795939 14.93171131 -5.49027684 25.36879999 -12.078125 32.2890625 C-17.19024699 36.84009793 -22.55511861 40.63764134 -29 43 C-30.00768351 29.64819353 -22.98040566 20.674954 -15.203125 10.63256836 C-13.85042194 8.85392644 -13.85042194 8.85392644 -12.33984375 6.19921875 C-9.53819443 1.60059319 -5.35596849 -0.76513836 0 0 Z " transform="translate(348,287)" style="fill: #F8FAF4;"/><path d="M0 0 C0.495 0.99 0.495 0.99 1 2 C1.66 2 2.32 2 3 2 C3 1.34 3 0.68 3 0 C3.66 0 4.32 0 5 0 C5.495 4.455 5.495 4.455 6 9 C5.05125 9.165 4.1025 9.33 3.125 9.5 C-0.04085368 10.62510667 -0.04085368 10.62510667 -0.87890625 12.7734375 C-1.88477149 16.5577417 -2.16331073 19.21287165 -1 23 C-3.31 23 -5.62 23 -8 23 C-8 23.99 -8 24.98 -8 26 C-8.66 26 -9.32 26 -10 26 C-10 26.66 -10 27.32 -10 28 C-24.71854466 33.33280604 -39.08528164 34.16043164 -54.625 34.0625 C-56.02473797 34.05747197 -57.4244777 34.05291138 -58.82421875 34.04882812 C-62.21619169 34.03713167 -65.60807233 34.02074086 -69 34 C-69 33.67 -69 33.34 -69 33 C-68.1529248 32.98018066 -67.30584961 32.96036133 -66.43310547 32.93994141 C-63.26830998 32.86150405 -60.1038758 32.77479951 -56.93945312 32.68261719 C-55.57398079 32.64450798 -54.20841423 32.60962464 -52.84277344 32.578125 C-50.87152393 32.53208122 -48.90058796 32.47318951 -46.9296875 32.4140625 C-45.15440674 32.36693115 -45.15440674 32.36693115 -43.34326172 32.31884766 C-39.95640484 31.99584232 -37.17134912 31.20350799 -34 30 C-34 29.34 -34 28.68 -34 28 C-32.35 27.67 -30.7 27.34 -29 27 C-29 24.69 -29 22.38 -29 20 C-28.01 19.67 -27.02 19.34 -26 19 C-37.55 19 -49.1 19 -61 19 C-61 18.67 -61 18.34 -61 18 C-60.36723145 17.98541748 -59.73446289 17.97083496 -59.08251953 17.95581055 C-42.12895034 17.52192919 -25.4700467 16.93001799 -9.48046875 10.76953125 C-6.85466911 9.95491309 -4.73224031 9.85774691 -2 10 C-1.93941406 9.36191406 -1.87882812 8.72382813 -1.81640625 8.06640625 C-1.69072266 6.82697266 -1.69072266 6.82697266 -1.5625 5.5625 C-1.44068359 4.32693359 -1.44068359 4.32693359 -1.31640625 3.06640625 C-1 1 -1 1 0 0 Z " transform="translate(269,298)" style="fill: #CB8D3D;"/><path d="M0 0 C0.78375 0.804375 1.5675 1.60875 2.375 2.4375 C4.71982856 4.98690417 4.71982856 4.98690417 7 6 C6.34 7.32 5.68 8.64 5 10 C4.34 10 3.68 10 3 10 C3 9.34 3 8.68 3 8 C1.02 8.99 -0.96 9.98 -3 11 C-2.65001953 12.09634766 -2.65001953 12.09634766 -2.29296875 13.21484375 C-2 16 -2 16 -3.36328125 18.31640625 C-4.32814453 19.42822266 -4.32814453 19.42822266 -5.3125 20.5625 C-8.00932295 23.69832635 -8.00932295 23.69832635 -10.07421875 27.25 C-10.37972656 27.8275 -10.68523437 28.405 -11 29 C-11.825 29.144375 -12.65 29.28875 -13.5 29.4375 C-14.325 29.623125 -15.15 29.80875 -16 30 C-17.27587495 32.3140387 -17.27587495 32.3140387 -18 35 C-19.78947368 38.78947368 -19.78947368 38.78947368 -21 40 C-18.69 40 -16.38 40 -14 40 C-14 42.64 -14 45.28 -14 48 C-14.99 48 -15.98 48 -17 48 C-17.33 48.66 -17.66 49.32 -18 50 C-21.73639216 48.75453595 -22.18756513 47.36595047 -24 44 C-24.8971875 44.928125 -24.8971875 44.928125 -25.8125 45.875 C-28 48 -28 48 -31 50 C-32.0828125 50.9590625 -32.0828125 50.9590625 -33.1875 51.9375 C-36.52929693 54.38815109 -39.93846953 56.09082895 -44 57 C-44.99 56.67 -45.98 56.34 -47 56 C-46.34 56 -45.68 56 -45 56 C-45 55.01 -45 54.02 -45 53 C-42.69 53 -40.38 53 -38 53 C-38 52.01 -38 51.02 -38 50 C-38.66 49.67 -39.32 49.34 -40 49 C-39.01 46.03 -38.02 43.06 -37 40 C-34.525 39.505 -34.525 39.505 -32 39 C-32 36.36 -32 33.72 -32 31 C-30.89398438 31.33451172 -30.89398438 31.33451172 -29.765625 31.67578125 C-27.01714723 32.25590683 -27.01714723 32.25590683 -24.859375 30.91796875 C-14.26150403 22.22378942 -6.13354943 12.26709887 0 0 Z " transform="translate(306,268)" style="fill: #BC8F42;"/><path d="M0 0 C2 3 2 3 1.5390625 6.13671875 C1.23742187 7.30847656 0.93578125 8.48023438 0.625 9.6875 C0.32851563 10.86699219 0.03203125 12.04648437 -0.2734375 13.26171875 C-0.63308594 14.61716797 -0.63308594 14.61716797 -1 16 C2.63 14.35 6.26 12.7 10 11 C10.99 11.99 11.98 12.98 13 14 C11.97448721 17.07653838 11.19203004 17.80796996 9 20 C8.505 21.485 8.505 21.485 8 23 C8.99 23 9.98 23 11 23 C10.34 26.63 9.68 30.26 9 34 C3.25 33.25 3.25 33.25 1 31 C0.34 31.33 -0.32 31.66 -1 32 C-1 31.34 -1 30.68 -1 30 C-1.66 30 -2.32 30 -3 30 C-3.33 29.34 -3.66 28.68 -4 28 C-4.66 28.99 -5.32 29.98 -6 31 C-5.67 31.66 -5.34 32.32 -5 33 C-5.66 33.66 -6.32 34.32 -7 35 C-7.33 33.02 -7.66 31.04 -8 29 C-9.19625 28.9175 -10.3925 28.835 -11.625 28.75 C-17.98952145 27.95303171 -22.1765897 23.97222024 -27 20 C-22.25 17 -22.25 17 -20 17 C-19.67 16.01 -19.34 15.02 -19 14 C-18.87625 14.928125 -18.87625 14.928125 -18.75 15.875 C-18.18741541 18.18437567 -18.18741541 18.18437567 -15.9375 19.25 C-15.298125 19.4975 -14.65875 19.745 -14 20 C-13.67 19.67 -13.34 19.34 -13 19 C-12.01 18.67 -11.02 18.34 -10 18 C-9.67 16.02 -9.34 14.04 -9 12 C-8.34 12.33 -7.68 12.66 -7 13 C-4.85991343 12.46980896 -4.85991343 12.46980896 -3 11 C-2.12010857 8.62786063 -2.12010857 8.62786063 -1.8125 5.9375 C-1.06440678 1.06440678 -1.06440678 1.06440678 0 0 Z " transform="translate(301,297)" style="fill: #988841;"/><path d="M0 0 C2 2 2 2 2.3125 4.8125 C2 8 2 8 0.4375 10.4375 C-1.55415814 13.98784711 -0.72580378 16.04107028 0 20 C0.09576528 23.0022415 0.06128199 25.99718268 0 29 C-3.67193138 30.22397713 -7.11083559 30.26111238 -10.9375 30.3125 C-11.65357422 30.34150391 -12.36964844 30.37050781 -13.10742188 30.40039062 C-16.59545306 30.4424151 -18.62289478 30.26650337 -21.50390625 28.23046875 C-23 26 -23 26 -23 22 C-21 20.375 -21 20.375 -19 19 C-19 18.34 -19 17.68 -19 17 C-18.38125 16.95875 -17.7625 16.9175 -17.125 16.875 C-16.42375 16.58625 -15.7225 16.2975 -15 16 C-13.6954344 13.00384054 -13.6954344 13.00384054 -13 10 C-14.98 10 -16.96 10 -19 10 C-18.236875 9.401875 -17.47375 8.80375 -16.6875 8.1875 C-14.07792652 6.19599823 -14.07792652 6.19599823 -12.5 4.25 C-10.36902263 2.47418552 -8.69097002 2.85837 -6 3 C-5.67 2.67 -5.34 2.34 -5 2 C-3.33382885 1.95936168 -1.66611905 1.957279 0 2 C0 1.34 0 0.68 0 0 Z " transform="translate(343,318)" style="fill: #4C804E;"/><path d="M0 0 C2.0625 0.4375 2.0625 0.4375 4 1 C3.34 1.825 2.68 2.65 2 3.5 C-0.50544538 7.2804585 -0.73237098 10.57930286 0 15 C1.61192841 19.27161028 3.18179645 21.55907702 7 24 C9.29308981 24.79146429 9.29308981 24.79146429 11.75 25.0625 C12.54921875 25.19785156 13.3484375 25.33320313 14.171875 25.47265625 C22.58930745 24.06587541 29.09974816 14.96700537 34.53125 8.95117188 C36.28684381 7.10634145 37.90555508 5.44995594 40 4 C43.4609375 4.05859375 43.4609375 4.05859375 46 5 C46.37311953 8.28228584 46.24611689 9.65076469 44.3125 12.39453125 C43.549375 13.19246094 42.78625 13.99039063 42 14.8125 C41.18789062 15.68132812 40.37578125 16.55015625 39.5390625 17.4453125 C37.92902914 19.06525376 36.28112518 20.64908114 34.5859375 22.1796875 C32.52928234 24.04739201 30.65051503 25.76396707 29 28 C28.78918149 31.89459074 28.78918149 31.89459074 30 35 C32.20152247 35.50753344 32.20152247 35.50753344 35 35 C37.53572282 33.20822891 39.77174488 31.15761879 42 29 C41.13203357 32.90584893 40.57766893 34.59300598 37.25 36.9375 C33.56865135 38.14101783 31.67819523 38.14432741 28 37 C26.125 35.75 26.125 35.75 25 34 C24.8125 31.3125 24.8125 31.3125 25 29 C24.01 29.33 23.02 29.66 22 30 C21.67 29.01 21.34 28.02 21 27 C16.05 27.33 11.1 27.66 6 28 C6 27.01 6 26.02 6 25 C4.68 24.67 3.36 24.34 2 24 C2 23.34 2 22.68 2 22 C1.071875 21.566875 1.071875 21.566875 0.125 21.125 C-2 20 -2 20 -4 18 C-4.23046875 15.6875 -4.23046875 15.6875 -4.1875 13 C-4.18105469 12.113125 -4.17460937 11.22625 -4.16796875 10.3125 C-4 8 -4 8 -3 6 C-2.34 6 -1.68 6 -1 6 C-1.020625 5.195625 -1.04125 4.39125 -1.0625 3.5625 C-1 1 -1 1 0 0 Z " transform="translate(192,228)" style="fill: #FCF5E4;"/><path d="M0 0 C5.46341463 2.92682927 5.46341463 2.92682927 7 6 C7.43808718 10.28819956 7.44926618 13.94422448 5.75 17.9375 C2.71291576 21.51692071 0.8221576 21.90717575 -3.875 22.4375 C-7.12458092 22.3646122 -8.89939678 21.71798257 -11.4375 19.6875 C-14.4736549 16.50323998 -14.92826688 14.96839717 -15.25 10.625 C-14.98284578 6.7512638 -14.34494559 5.03974428 -12 2 C-7.96499935 -0.69000043 -4.74124093 -0.678474 0 0 Z " transform="translate(60,255)" style="fill: #F58E32;"/><path d="M0 0 C5.53104925 5.93576017 5.53104925 5.93576017 6 10 C6.9590625 10.1546875 6.9590625 10.1546875 7.9375 10.3125 C8.9584375 10.6528125 8.9584375 10.6528125 10 11 C10.33 11.99 10.66 12.98 11 14 C13.01508358 14.73323796 13.01508358 14.73323796 15 15 C15.33 16.32 15.66 17.64 16 19 C14.35 19 12.7 19 11 19 C12.29278533 22.98608812 13.60158981 24.62111287 17 27 C17 27.66 17 28.32 17 29 C18.32 29 19.64 29 21 29 C21 29.66 21 30.32 21 31 C17.15758823 32.28080392 15.77882797 31.30805584 12 30 C9.67305036 29.62468554 7.34023315 29.28082798 5 29 C4.67 27.68 4.34 26.36 4 25 C2.68 25 1.36 25 0 25 C-0.33 24.01 -0.66 23.02 -1 22 C-1.66 21.67 -2.32 21.34 -3 21 C-3 19.68 -3 18.36 -3 17 C-2.34 17 -1.68 17 -1 17 C-1.45142881 15.70590408 -1.91141021 14.41478941 -2.375 13.125 C-2.63023438 12.40570313 -2.88546875 11.68640625 -3.1484375 10.9453125 C-3.93877783 8.81842006 -3.93877783 8.81842006 -6 7 C-6.125 4.375 -6.125 4.375 -6 2 C-2.25 0 -2.25 0 0 0 Z " transform="translate(119,267)" style="fill: #F68E2F;"/><path d="M0 0 C0.33 0 0.66 0 1 0 C1 4.95 1 9.9 1 15 C2.32 14.67 3.64 14.34 5 14 C5.33 14.99 5.66 15.98 6 17 C4.68 17.33 3.36 17.66 2 18 C2 18.66 2 19.32 2 20 C0.35 20 -1.3 20 -3 20 C-3 20.99 -3 21.98 -3 23 C-4.98 23.33 -6.96 23.66 -9 24 C-9.33 24.99 -9.66 25.98 -10 27 C-13.02701211 27.44297738 -15.19525123 27.46485488 -17.88671875 25.91015625 C-21.20693393 23.28600295 -22.86852084 21.29329967 -24.625 17.375 C-25 14 -25 14 -23.625 11.5625 C-23.08875 11.046875 -22.5525 10.53125 -22 10 C-21.67 10.99 -21.34 11.98 -21 13 C-19.9790625 13.1546875 -19.9790625 13.1546875 -18.9375 13.3125 C-15.37084011 14.14725019 -12.33777806 15.49472754 -9 17 C-9.061875 15.989375 -9.12375 14.97875 -9.1875 13.9375 C-8.97357173 9.44500628 -7.95386468 6.98914039 -6 3 C-4.35 3 -2.7 3 -1 3 C-0.67 2.01 -0.34 1.02 0 0 Z " transform="translate(319,314)" style="fill: #5B7F42;"/><path d="M0 0 C2.125 0.9375 2.125 0.9375 4 2 C5.20116943 12.570291 -1.02133924 21.62554868 -7.1328125 29.72265625 C-10.15965804 33.41439464 -10.15965804 33.41439464 -12 35 C-12.66 35 -13.32 35 -14 35 C-14.66906129 24.11660309 -14.35127566 14.64890259 -7.1796875 5.73828125 C-4.93009731 3.41809723 -2.89929663 1.44964832 0 0 Z " transform="translate(363,303)" style="fill: #EBF7EA;"/><path d="M0 0 C1.32 0 2.64 0 4 0 C4.125 7.625 4.125 7.625 3 11 C3.66 11.33 4.32 11.66 5 12 C5 12.99 5 13.98 5 15 C4.01 15 3.02 15 2 15 C2.99 16.485 2.99 16.485 4 18 C5.2 21.6 5.2 21.6 4 24 C2.68 24 1.36 24 0 24 C0 24.66 0 25.32 0 26 C-0.99 26.66 -1.98 27.32 -3 28 C-3.38411275 30.609621 -3.60293197 33.0058074 -3.6875 35.625 C-3.72166016 36.33140625 -3.75582031 37.0378125 -3.79101562 37.765625 C-3.87351308 39.50985688 -3.93843335 41.25490395 -4 43 C-5.9451 40.08235 -6.45276317 38.37462715 -7 35 C-8.485 35.495 -8.485 35.495 -10 36 C-11.485 30.555 -11.485 30.555 -13 25 C-12.01 24.01 -11.02 23.02 -10 22 C-9.34 22.33 -8.68 22.66 -8 23 C-8.226875 21.948125 -8.45375 20.89625 -8.6875 19.8125 C-9.04249195 15.48159818 -8.44382759 14.43946106 -6 11 C-5.30177383 9.34630643 -4.62501395 7.68272986 -4 6 C-3.34 6 -2.68 6 -2 6 C-2 4.68 -2 3.36 -2 2 C-1.34 2 -0.68 2 0 2 C0 1.34 0 0.68 0 0 Z " transform="translate(102,128)" style="fill: #F68E30;"/><path d="M0 0 C4.11956569 2.38901043 7.02321521 4.63214564 8.5625 9.25 C8.63301114 11.98865287 8.65607765 14.70027588 8.625 17.4375 C8.62048828 18.18708984 8.61597656 18.93667969 8.61132812 19.70898438 C8.59956354 21.55602383 8.58162865 23.40302213 8.5625 25.25 C7.9025 25.25 7.2425 25.25 6.5625 25.25 C6.5625 24.59 6.5625 23.93 6.5625 23.25 C4.9125 23.58 3.2625 23.91 1.5625 24.25 C1.5625 23.59 1.5625 22.93 1.5625 22.25 C0.9025 22.25 0.2425 22.25 -0.4375 22.25 C-0.4375 24.56 -0.4375 26.87 -0.4375 29.25 C-1.860625 28.940625 -1.860625 28.940625 -3.3125 28.625 C-4.859375 28.439375 -4.859375 28.439375 -6.4375 28.25 C-7.0975 28.91 -7.7575 29.57 -8.4375 30.25 C-9.57420623 26.83988131 -8.97203078 25.60445217 -7.91796875 22.30078125 C-7.06349164 18.65362286 -7.28557618 14.97213356 -7.4375 11.25 C-12.71499285 11.78851968 -16.69395564 13.02343836 -21.4375 15.25 C-21.4375 13.93 -21.4375 12.61 -21.4375 11.25 C-15.59950408 9.55167391 -10.50642629 8.99712807 -4.4375 9.25 C-4.4375 11.89 -4.4375 14.53 -4.4375 17.25 C-3.7775 17.25 -3.1175 17.25 -2.4375 17.25 C-2.1075 16.26 -1.7775 15.27 -1.4375 14.25 C1.625 13.0625 1.625 13.0625 4.5625 12.25 C4.5625 10.6 4.5625 8.95 4.5625 7.25 C3.2425 6.59 1.9225 5.93 0.5625 5.25 C0.5625 4.26 0.5625 3.27 0.5625 2.25 C-1.0875 2.25 -2.7375 2.25 -4.4375 2.25 C-4.7675 1.59 -5.0975 0.93 -5.4375 0.25 C-9.0675 0.25 -12.6975 0.25 -16.4375 0.25 C-16.4375 0.91 -16.4375 1.57 -16.4375 2.25 C-19.4075 1.755 -19.4075 1.755 -22.4375 1.25 C-15.34552247 -2.41826424 -7.42268396 -3.55786543 0 0 Z " transform="translate(316.4375,238.75)" style="fill: #D19246;"/><path d="M0 0 C5.5593228 3.35657226 5.5593228 3.35657226 6.51953125 6.9375 C6.70231285 10.51189582 6.1190126 12.75162587 4.5625 16 C1.28742997 18.55615222 -0.81039427 18.61115827 -4.875 18.34375 C-7.84547497 17.86323199 -9.16731801 17.44357599 -11 15 C-12.06405688 10.60189825 -12.53726987 8.30075863 -10.8125 4.125 C-7.72704034 0.50756454 -4.75377318 -0.79229553 0 0 Z " transform="translate(59,129)" style="fill: #EF9340;"/><path d="M0 0 C0.33 0 0.66 0 1 0 C1 13.86 1 27.72 1 42 C1.66 42 2.32 42 3 42 C3 45.96 3 49.92 3 54 C3.66 54 4.32 54 5 54 C5.495 51.03 5.495 51.03 6 48 C7.32 48.33 8.64 48.66 10 49 C9.89171875 50.12148437 9.89171875 50.12148437 9.78125 51.265625 C9.6884375 52.25046875 9.595625 53.2353125 9.5 54.25 C9.4071875 55.22453125 9.314375 56.1990625 9.21875 57.203125 C9.04199832 59.46302153 9 61.73320193 9 64 C9.66 64 10.32 64 11 64 C11.18175781 65.19238281 11.36351563 66.38476562 11.55078125 67.61328125 C11.80404926 69.17979082 12.05799072 70.74619162 12.3125 72.3125 C12.43044922 73.09818359 12.54839844 73.88386719 12.66992188 74.69335938 C12.79560547 75.45068359 12.92128906 76.20800781 13.05078125 76.98828125 C13.16075439 77.68477783 13.27072754 78.38127441 13.3840332 79.09887695 C14.12694425 81.39180137 15.26064572 82.37368068 17 84 C17.66957496 86.67318858 17.77362708 89.23825037 18 92 C2.41915571 72.57203366 -2.02622896 44.75598471 -2.25 20.625 C-2.2595874 19.72120605 -2.2691748 18.81741211 -2.27905273 17.88623047 C-2.24791506 11.71870567 -1.41776311 5.99884959 0 0 Z " transform="translate(82,176)" style="fill: #EB9548;"/><path d="M0 0 C0.66 0 1.32 0 2 0 C3.0260734 1.31337396 4.02727325 2.64664105 5 4 C5.33 4 5.66 4 6 4 C6 7.63 6 11.26 6 15 C7.65 14.34 9.3 13.68 11 13 C13.3320802 12.92353835 15.66845878 12.90856701 18 13 C18 13.33 18 13.66 18 14 C16.02 14 14.04 14 12 14 C11.67 14.99 11.34 15.98 11 17 C9.125 17.875 9.125 17.875 7 18 C5.375 16.5625 5.375 16.5625 4 15 C1.85446219 14.80940245 1.85446219 14.80940245 -0.0625 16.4375 C-2.81081078 20.07236265 -2.80958602 23.54431282 -3 28 C-5 28 -7 28 -9 28 C-9.66 30.31 -10.32 32.62 -11 35 C-11.66 35 -12.32 35 -13 35 C-13.0825 35.61875 -13.165 36.2375 -13.25 36.875 C-14 39 -14 39 -16.0625 40.25 C-16.701875 40.4975 -17.34125 40.745 -18 41 C-18.66 40.34 -19.32 39.68 -20 39 C-19.50371094 38.44054687 -19.00742187 37.88109375 -18.49609375 37.3046875 C-12.6004242 30.34623122 -8.81280728 23.22240178 -5 15 C-4.67 14.34 -4.34 13.68 -4 13 C-4 11.88625 -4 10.7725 -4 9.625 C-4 6.75065724 -3.8611949 4.69123407 -3 2 C-2.01 2 -1.02 2 0 2 C0 1.34 0 0.68 0 0 Z " transform="translate(354,281)" style="fill: #5A8247;"/><path d="M0 0 C0.33 0 0.66 0 1 0 C1.58236275 4.38319402 1.99587478 8.32370248 -0.32568359 12.23144531 C-2.17740663 14.33971709 -4.11411262 16.2348422 -6.1875 18.125 C-6.86103516 18.7953125 -7.53457031 19.465625 -8.22851562 20.15625 C-13.24158786 24.94923614 -13.24158786 24.94923614 -16.7355957 25.18310547 C-17.48284912 25.12268066 -18.23010254 25.06225586 -19 25 C-19.33 25.66 -19.66 26.32 -20 27 C-21.32 26.67 -22.64 26.34 -24 26 C-23.60241254 21.06630102 -21.12805231 18.45895241 -17.75 15.125 C-17.27175781 14.61453125 -16.79351562 14.1040625 -16.30078125 13.578125 C-14.859375 12.1328125 -14.859375 12.1328125 -12 10 C-9.140625 10.1796875 -9.140625 10.1796875 -7 11 C-7.185625 10.401875 -7.37125 9.80375 -7.5625 9.1875 C-8.17993664 6.1003168 -6.98311714 3.94935142 -6 1 C-4.68 1.66 -3.36 2.32 -2 3 C-1.34 2.01 -0.68 1.02 0 0 Z " transform="translate(246,234)" style="fill: #F39336;"/><path d="M0 0 C1.10867432 -0.0319043 1.10867432 -0.0319043 2.23974609 -0.06445312 C7.23331948 -0.09757799 7.23331948 -0.09757799 9.66796875 1.765625 C10.00441406 2.25546875 10.34085938 2.7453125 10.6875 3.25 C10.0275 4.57 9.3675 5.89 8.6875 7.25 C10.3375 7.25 11.9875 7.25 13.6875 7.25 C13.6875 7.91 13.6875 8.57 13.6875 9.25 C13.07261719 9.34796875 12.45773438 9.4459375 11.82421875 9.546875 C11.01597656 9.69640625 10.20773438 9.8459375 9.375 10 C8.57449219 10.13921875 7.77398437 10.2784375 6.94921875 10.421875 C4.5367212 11.04519195 4.5367212 11.04519195 3.43334961 13.22412109 C0.09489623 17.09805287 -5.44273987 16.68551758 -10.29699707 17.11169434 C-16.2570931 17.5206816 -22.21789696 17.45115784 -28.1875 17.375 C-29.56900378 17.36493026 -30.95051484 17.3558116 -32.33203125 17.34765625 C-35.65904732 17.3243904 -38.98567285 17.29170564 -42.3125 17.25 C-42.3125 16.92 -42.3125 16.59 -42.3125 16.25 C-41.4654248 16.23018066 -40.61834961 16.21036133 -39.74560547 16.18994141 C-36.58080998 16.11150405 -33.4163758 16.02479951 -30.25195312 15.93261719 C-28.88648079 15.89450798 -27.52091423 15.85962464 -26.15527344 15.828125 C-24.18402393 15.78208122 -22.21308796 15.72318951 -20.2421875 15.6640625 C-18.46690674 15.61693115 -18.46690674 15.61693115 -16.65576172 15.56884766 C-13.26890484 15.24584232 -10.48384912 14.45350799 -7.3125 13.25 C-7.3125 12.59 -7.3125 11.93 -7.3125 11.25 C-5.6625 10.92 -4.0125 10.59 -2.3125 10.25 C-2.3125 7.94 -2.3125 5.63 -2.3125 3.25 C-1.3225 2.92 -0.3325 2.59 0.6875 2.25 C-10.8625 2.25 -22.4125 2.25 -34.3125 2.25 C-34.3125 1.92 -34.3125 1.59 -34.3125 1.25 C-22.88188179 0.70277407 -11.44356434 0.16282954 0 0 Z " transform="translate(242.3125,314.75)" style="fill: #D89040;"/><path d="M0 0 C0.33 0.66 0.66 1.32 1 2 C1.99 1.34 2.98 0.68 4 0 C4.33 2.64 4.66 5.28 5 8 C5.721875 7.814375 6.44375 7.62875 7.1875 7.4375 C10.12826973 6.98004693 12.14103058 7.26483643 15 8 C14.67 8.66 14.34 9.32 14 10 C12.68 10 11.36 10 10 10 C9.690625 10.9590625 9.690625 10.9590625 9.375 11.9375 C8 14 8 14 4.875 14.75 C3.451875 14.87375 3.451875 14.87375 2 15 C1.67 16.32 1.34 17.64 1 19 C-1.97 19.33 -4.94 19.66 -8 20 C-8 19.34 -8 18.68 -8 18 C-8.66 18 -9.32 18 -10 18 C-9.79503906 17.443125 -9.59007812 16.88625 -9.37890625 16.3125 C-7.98422473 12.36201456 -6.84658252 8.68173238 -6.4375 4.5 C-6.293125 3.345 -6.14875 2.19 -6 1 C-4 0 -4 0 0 0 Z " transform="translate(337,271)" style="fill: #8D853C;"/><path d="M0 0 C0.33 4.95 0.66 9.9 1 15 C-4.32730273 17.7203248 -8.99372362 19.05515666 -15 18 C-17.5625 16.25 -17.5625 16.25 -19 14 C-19 12.68 -19 11.36 -19 10 C-18.19175781 9.61328125 -17.38351562 9.2265625 -16.55078125 8.828125 C-15.48214844 8.30734375 -14.41351563 7.7865625 -13.3125 7.25 C-12.25675781 6.73953125 -11.20101563 6.2290625 -10.11328125 5.703125 C-6.85324253 3.91971611 -3.69413331 0 0 0 Z " transform="translate(339,330)" style="fill: #E7F5E8;"/><path d="M0 0 C0.66 0 1.32 0 2 0 C1.91621094 0.71027344 1.83242188 1.42054688 1.74609375 2.15234375 C1.64425781 3.07144531 1.54242188 3.99054688 1.4375 4.9375 C1.33308594 5.85402344 1.22867187 6.77054687 1.12109375 7.71484375 C1.08113281 8.46894531 1.04117187 9.22304688 1 10 C1.33 10.33 1.66 10.66 2 11 C2.04063832 12.66617115 2.042721 14.33388095 2 16 C2.66 16 3.32 16 4 16 C4.17650609 20.5009052 4.21650433 24.01029221 2 28 C-1.31034483 31 -1.31034483 31 -4 31 C-4.66 31.66 -5.32 32.32 -6 33 C-7.8502683 27.44919511 -7.10637806 21.46630749 -6.6875 15.6875 C-6.62949219 14.88699219 -6.57148438 14.08648437 -6.51171875 13.26171875 C-5.89802718 10.54929569 -4.73077831 9.15049205 -3 7 C-2.03904512 5.11476331 -2.03904512 5.11476331 -1.3125 3.25 C-0.879375 2.1775 -0.44625 1.105 0 0 Z " transform="translate(269,261)" style="fill: #F48E32;"/><path d="M0 0 C1.32 0.99 2.64 1.98 4 3 C2.97448721 6.07653838 2.19203004 6.80796996 0 9 C-0.33 9.99 -0.66 10.98 -1 12 C-0.01 12 0.98 12 2 12 C1.34 15.63 0.68 19.26 0 23 C-5.75 22.25 -5.75 22.25 -8 20 C-8.66 20.33 -9.32 20.66 -10 21 C-10 20.34 -10 19.68 -10 19 C-10.66 19 -11.32 19 -12 19 C-12.99 17.02 -13.98 15.04 -15 13 C-13 10 -13 10 -9.875 9.3125 C-8.451875 9.1578125 -8.451875 9.1578125 -7 9 C-7 8.34 -7 7.68 -7 7 C-7.66 6.67 -8.32 6.34 -9 6 C-8.01 5.67 -7.02 5.34 -6 5 C-4.97895449 4.02149805 -3.9793879 3.02019573 -3 2 C-2.01 1.34 -1.02 0.68 0 0 Z " transform="translate(310,308)" style="fill: #A2A672;"/><path d="M0 0 C2.51036536 3.0297513 4.20372116 6.24376299 5.95556641 9.73681641 C11.95315944 21.66057107 19.19818091 31.83742998 29 41 C27.02 41.495 27.02 41.495 25 42 C24.34 40.68 23.68 39.36 23 38 C21.68 38 20.36 38 19 38 C18.71125 37.05125 18.4225 36.1025 18.125 35.125 C17.23174891 31.94788422 17.23174891 31.94788422 15 30 C14.67 29.01 14.34 28.02 14 27 C13.01 27.33 12.02 27.66 11 28 C10.34 27.67 9.68 27.34 9 27 C9 25.68 9 24.36 9 23 C7.68 23 6.36 23 5 23 C4.34 24.98 3.68 26.96 3 29 C2.01 29 1.02 29 0 29 C0.60990891 25.44219804 1.5783681 22.3171411 3 19 C1.68 19 0.36 19 -1 19 C-1.33 19.66 -1.66 20.32 -2 21 C-2.80967438 18.08517222 -3.21845993 16.53886783 -2.0625 13.6875 C-1.711875 13.130625 -1.36125 12.57375 -1 12 C-0.01 12 0.98 12 2 12 C2 12.99 2 13.98 2 15 C2.66 15 3.32 15 4 15 C3.79503906 14.41992188 3.59007813 13.83984375 3.37890625 13.2421875 C1.85990187 8.8378016 0.5952849 4.64322223 0 0 Z " transform="translate(105,240)" style="fill: #ED9341;"/><path d="M0 0 C1.65 0.33 3.3 0.66 5 1 C5.06058594 1.71027344 5.12117188 2.42054688 5.18359375 3.15234375 C5.26738281 4.07144531 5.35117187 4.99054688 5.4375 5.9375 C5.51871094 6.85402344 5.59992188 7.77054688 5.68359375 8.71484375 C5.76044976 10.96159732 5.76044976 10.96159732 7 12 C7.23192865 13.51469448 7.41215238 15.03754562 7.5625 16.5625 C7.64628906 17.38878906 7.73007812 18.21507812 7.81640625 19.06640625 C7.87699219 19.70449219 7.93757813 20.34257812 8 21 C8.33 21 8.66 21 9 21 C9.02714735 23.22909871 9.04646254 25.45829367 9.0625 27.6875 C9.07410156 28.92886719 9.08570313 30.17023438 9.09765625 31.44921875 C9.01478673 34.46235454 8.70839449 37.08275339 8 40 C7.34 40 6.68 40 6 40 C6 37.36 6 34.72 6 32 C5.34 32 4.68 32 4 32 C1.61566657 25.01730924 -0.37601631 18.36300751 -1 11 C-0.67 10.34 -0.34 9.68 0 9 C0.06950541 7.45976004 0.08452357 5.91665012 0.0625 4.375 C0.05347656 3.55773437 0.04445313 2.74046875 0.03515625 1.8984375 C0.02355469 1.27195313 0.01195312 0.64546875 0 0 Z " transform="translate(260,168)" style="fill: #F59230;"/><path d="M0 0 C0.99 0 1.98 0 3 0 C3 0.99 3 1.98 3 3 C5.31 3.33 7.62 3.66 10 4 C10 4.66 10 5.32 10 6 C11.65 6.33 13.3 6.66 15 7 C15 7.66 15 8.32 15 9 C15.66 9.33 16.32 9.66 17 10 C15.35 10 13.7 10 12 10 C12 10.99 12 11.98 12 13 C13.423125 12.938125 13.423125 12.938125 14.875 12.875 C18 13 18 13 20 15 C13.97006813 20.022047 13.97006813 20.022047 10.25 19.9375 C8 19 8 19 5 17 C5 15.68 5 14.36 5 13 C2.69 13 0.38 13 -2 13 C-2 12.34 -2 11.68 -2 11 C-1.34 11 -0.68 11 0 11 C-0.33 10.01 -0.66 9.02 -1 8 C0.32 7.34 1.64 6.68 3 6 C3 5.34 3 4.68 3 4 C2.01 3.67 1.02 3.34 0 3 C0 2.01 0 1.02 0 0 Z " transform="translate(272,81)" style="fill: #F68E31;"/><path d="M0 0 C2.4375 1.625 2.4375 1.625 4 4 C4.5625 6.9375 4.5625 6.9375 4 10 C1.51877621 13.35694984 0.05634831 14.78441871 -4.0625 15.625 C-7 15 -7 15 -9.375 12.875 C-11.28071139 9.50335677 -11.64850195 7.80994895 -11 4 C-8.05899778 -0.47032338 -5.13105401 -0.73300772 0 0 Z " transform="translate(141,52)" style="fill: #EE923F;"/><path d="M0 0 C0.33 0 0.66 0 1 0 C1 5.61 1 11.22 1 17 C6.74813012 16.63936201 6.74813012 16.63936201 9 14 C9.71408334 12.01643517 10.38617742 10.01684563 11 8 C11.33 8 11.66 8 12 8 C12 13.28 12 18.56 12 24 C11.34 24 10.68 24 10 24 C10 24.66 10 25.32 10 26 C9.01 25.67 8.02 25.34 7 25 C6.34 27.97 5.68 30.94 5 34 C2 33 2 33 1.05078125 31.12890625 C-1.70215373 21.55917989 -2.69692916 9.70543194 0 0 Z " transform="translate(262,274)" style="fill: #DC9142;"/><path d="M0 0 C0.66 0.33 1.32 0.66 2 1 C1.34 1.66 0.68 2.32 0 3 C0.02266343 5.01224124 0.02266343 5.01224124 1 7 C2.97670607 8.75422772 2.97670607 8.75422772 5 10 C1.12207712 14.92908146 -2.76116833 18.5423711 -8 22 C-7.67 20.02 -7.34 18.04 -7 16 C-8.65 15.67 -10.3 15.34 -12 15 C-14.12038635 17.61514317 -16.13091744 20.19637616 -18 23 C-18.99 23 -19.98 23 -21 23 C-21 23.66 -21 24.32 -21 25 C-21.66 25 -22.32 25 -23 25 C-21.43717018 21.23396131 -19.0936525 18.86360849 -16.2109375 16.015625 C-15.74765045 15.55516785 -15.2843634 15.09471069 -14.80703735 14.62030029 C-13.33434102 13.15874922 -11.85482597 11.70432832 -10.375 10.25 C-9.37193678 9.25697389 -8.36932743 8.26348911 -7.3671875 7.26953125 C-4.91669165 4.84102059 -2.4600333 2.41885325 0 0 Z " transform="translate(216,208)" style="fill: #EF9439;"/><path d="M0 0 C3.36591866 1.44253657 5.51047079 3.33264727 8 6 C7.195625 5.814375 6.39125 5.62875 5.5625 5.4375 C4.716875 5.293125 3.87125 5.14875 3 5 C2.67 5.33 2.34 5.66 2 6 C2.99 6.99 2.99 6.99 4 8 C2.68 8.66 1.36 9.32 0 10 C0 9.01 0 8.02 0 7 C-5.32170494 6.70437633 -5.32170494 6.70437633 -10 9 C-12.19418013 9.57756127 -14.40529747 10.0924743 -16.625 10.5625 C-20.62999584 11.11685769 -20.62999584 11.11685769 -24 13 C-26.57897694 13.32237212 -29.15931821 13.51267304 -31.75 13.71875 C-33.96665352 13.76200665 -33.96665352 13.76200665 -35 15 C-37.9479589 15.10128473 -40.87196763 15.13967475 -43.8203125 15.1328125 C-44.71233368 15.13376923 -45.60435486 15.13472595 -46.52340698 15.13571167 C-48.41827464 15.13639395 -50.31314461 15.13453633 -52.20800781 15.13037109 C-55.0918514 15.12506104 -57.97553654 15.13029485 -60.859375 15.13671875 C-62.70052117 15.13605724 -64.54166725 15.13477457 -66.3828125 15.1328125 C-67.2403714 15.13483673 -68.0979303 15.13686096 -68.98147583 15.13894653 C-73.75961848 15.12051357 -78.28756996 14.79929544 -83 14 C-83 13.67 -83 13.34 -83 13 C-81.92218262 13.01047363 -80.84436523 13.02094727 -79.73388672 13.03173828 C-75.66718985 13.06842366 -71.60050702 13.09107371 -67.53369141 13.10986328 C-65.78627041 13.11981187 -64.03886556 13.13337557 -62.29150391 13.15087891 C-41.70926555 13.35162363 -17.69592331 11.79728221 0 0 Z " transform="translate(275,318)" style="fill: #FCF2DF;"/><path d="M0 0 C4.00699698 2.03992573 6.64236201 4.18994893 9 8 C9.3984375 10.65625 9.3984375 10.65625 9.375 13.5 C9.38273437 14.4384375 9.39046875 15.376875 9.3984375 16.34375 C8.94552484 19.36316774 8.00855276 20.74702018 6 23 C6 21.35 6 19.7 6 18 C4.68 18 3.36 18 2 18 C2 15.69 2 13.38 2 11 C2.66 10.67 3.32 10.34 4 10 C4 10.66 4 11.32 4 12 C4.66 12 5.32 12 6 12 C6 10.68 6 9.36 6 8 C5.34 8 4.68 8 4 8 C4 6.68 4 5.36 4 4 C0.85069107 2.95023036 -1.38814456 2.89868405 -4.6875 2.9375 C-5.68136719 2.94652344 -6.67523438 2.95554687 -7.69921875 2.96484375 C-8.45847656 2.97644531 -9.21773437 2.98804688 -10 3 C-9.34 4.98 -8.68 6.96 -8 9 C-10.31 9 -12.62 9 -15 9 C-15 9.66 -15 10.32 -15 11 C-15.66 11 -16.32 11 -17 11 C-16.68817931 12.41681634 -16.37551263 13.83344651 -16.0625 15.25 C-15.88847656 16.03890625 -15.71445313 16.8278125 -15.53515625 17.640625 C-15.052444 19.76878703 -14.53836822 21.88532842 -14 24 C-17.86166125 20.30623707 -17.86166125 20.30623707 -18.203125 17.08203125 C-18.31678436 11.57902396 -17.78285943 7.7980335 -15 3 C-10.80518349 -0.94058521 -5.44437625 -0.79397154 0 0 Z " transform="translate(160,341)" style="fill: #E89449;"/><path d="M0 0 C4.875 3.75 4.875 3.75 6 6 C6.66 6 7.32 6 8 6 C8.33 7.32 8.66 8.64 9 10 C8.01 10.495 8.01 10.495 7 11 C6.855625 11.78375 6.71125 12.5675 6.5625 13.375 C5.92443645 16.35262991 5.40339893 17.1974508 3 19 C0.3125 20.1875 0.3125 20.1875 -2 21 C-2.33 20.01 -2.66 19.02 -3 18 C-5.01508358 17.26676204 -5.01508358 17.26676204 -7 17 C-6.57669933 11.60291641 -5.51724055 9.05015579 -2 5 C-0.75983331 2.3205355 -0.75983331 2.3205355 0 0 Z " transform="translate(316,280)" style="fill: #FDFDFC;"/><path d="M0 0 C0 0.66 0 1.32 0 2 C-2.64 2 -5.28 2 -8 2 C-8 3.65 -8 5.3 -8 7 C-7.21625 6.938125 -6.4325 6.87625 -5.625 6.8125 C-4.325625 6.9053125 -4.325625 6.9053125 -3 7 C-2.01 8.485 -2.01 8.485 -1 10 C-2 11 -2 11 -5.37890625 11.09765625 C-6.77347077 11.09098369 -8.16801743 11.07902532 -9.5625 11.0625 C-10.27341797 11.05798828 -10.98433594 11.05347656 -11.71679688 11.04882812 C-13.47790013 11.03700864 -15.23896036 11.01907263 -17 11 C-17.33 9.35 -17.66 7.7 -18 6 C-18.99 7.32 -19.98 8.64 -21 10 C-21.66 9.814375 -22.32 9.62875 -23 9.4375 C-26.89330114 8.86972692 -30.11375479 9.40718293 -34 10 C-30.25558865 6.63808228 -25.94351731 5.40116004 -21.25 3.875 C-20.4765625 3.61074219 -19.703125 3.34648438 -18.90625 3.07421875 C-12.56397889 0.97786404 -6.71448112 0 0 0 Z " transform="translate(200,83)" style="fill: #FDF8EC;"/><path d="M0 0 C0.66 0 1.32 0 2 0 C2 0.66 2 1.32 2 2 C3.32 2.33 4.64 2.66 6 3 C6 2.01 6 1.02 6 0 C6.66 0 7.32 0 8 0 C7.67 2.31 7.34 4.62 7 7 C7.99 7.33 8.98 7.66 10 8 C9.125 15.875 9.125 15.875 8 17 C6.48071962 17.07179964 4.95832518 17.08392007 3.4375 17.0625 C2.61121094 17.05347656 1.78492188 17.04445313 0.93359375 17.03515625 C-0.02353516 17.01775391 -0.02353516 17.01775391 -1 17 C-1.67305018 15.39850114 -2.33822227 13.79368971 -3 12.1875 C-3.37125 11.29417969 -3.7425 10.40085937 -4.125 9.48046875 C-5 7 -5 7 -5 4 C-2.525 4.99 -2.525 4.99 0 6 C0 4.02 0 2.04 0 0 Z " transform="translate(314,80)" style="fill: #F4C99C;"/><path d="M0 0 C1.1165923 3.34977689 0.84085912 4.46324387 0.08203125 7.828125 C-1.21757439 14.48928818 -1.34337715 20.97868619 -1.3125 27.75 C-1.30903564 28.98339111 -1.30557129 30.21678223 -1.30200195 31.48754883 C-1.16535477 42.94099861 0.31415336 53.41679874 4.44921875 64.16796875 C5 66 5 66 5 70 C4.34 70 3.68 70 3 70 C3 69.01 3 68.02 3 67 C2.01 66.67 1.02 66.34 0 66 C-0.33 62.7 -0.66 59.4 -1 56 C-1.33 59.63 -1.66 63.26 -2 67 C-2.33 67 -2.66 67 -3 67 C-3 65.35 -3 63.7 -3 62 C-3.66 62 -4.32 62 -5 62 C-5.33 62.66 -5.66 63.32 -6 64 C-5.67 60.7 -5.34 57.4 -5 54 C-4.34 54 -3.68 54 -3 54 C-3.00666183 53.36772995 -3.01332367 52.7354599 -3.02018738 52.08403015 C-3.08646147 45.51448645 -3.13176761 38.94503741 -3.16479492 32.37524414 C-3.17989881 29.92207992 -3.20038321 27.46894276 -3.22631836 25.01586914 C-3.26263057 21.49358445 -3.27971036 17.97165619 -3.29296875 14.44921875 C-3.30845261 13.34913986 -3.32393646 12.24906097 -3.33988953 11.11564636 C-3.34011612 10.09481461 -3.34034271 9.07398285 -3.34057617 8.0222168 C-3.34723801 7.12286911 -3.35389984 6.22352142 -3.36076355 5.29692078 C-2.93231328 2.56905005 -2.11918912 1.6998517 0 0 Z " transform="translate(100,170)" style="fill: #EB974B;"/><path d="M0 0 C0.67635064 3.20636973 1.33932448 6.41536689 2 9.625 C2.19078125 10.52863281 2.3815625 11.43226563 2.578125 12.36328125 C3.52210398 16.98203556 4.25214768 21.25647172 4 26 C-2.02900687 25.48758893 -8.02004643 24.930215 -14 24 C-14 23.67 -14 23.34 -14 23 C-12.08364783 22.94576362 -10.16685075 22.90710037 -8.25 22.875 C-7.18265625 22.85179687 -6.1153125 22.82859375 -5.015625 22.8046875 C-2.07529894 22.99512313 -0.47638122 23.47329896 2 25 C1.7525 23.515 1.7525 23.515 1.5 22 C0.91525483 17.97267058 0.92867976 14.06525377 1 10 C-0.98 10 -2.96 10 -5 10 C-5.33 9.34 -5.66 8.68 -6 8 C-6.66 8 -7.32 8 -8 8 C-8.061875 8.556875 -8.12375 9.11375 -8.1875 9.6875 C-9.3608937 13.027159 -11.34446814 14.71500747 -14 17 C-16.57059493 18.16845224 -17.49764748 18.15788222 -20.1875 17.3125 C-22 16 -22 16 -22.75 13.875 C-22.8325 13.25625 -22.915 12.6375 -23 12 C-22.01 12.495 -22.01 12.495 -21 13 C-18.13474842 13.48541668 -18.13474842 13.48541668 -15 13 C-12.22636724 10.95153836 -12.22636724 10.95153836 -9.8125 8.1875 C-8.97332031 7.29417969 -8.13414062 6.40085938 -7.26953125 5.48046875 C-6.52058594 4.66191406 -5.77164063 3.84335938 -5 3 C-2.24411135 0 -2.24411135 0 0 0 Z " transform="translate(258,182)" style="fill: #FDEFD9;"/><path d="M0 0 C0 0.66 0 1.32 0 2 C1.3921875 1.8453125 1.3921875 1.8453125 2.8125 1.6875 C3.864375 1.790625 4.91625 1.89375 6 2 C7.88599343 4.38892501 9 5.91851558 9 9 C3.06 8.67 -2.88 8.34 -9 8 C-8.67 9.65 -8.34 11.3 -8 13 C-8.99 12.67 -9.98 12.34 -11 12 C-11 11.34 -11 10.68 -11 10 C-11.66 10 -12.32 10 -13 10 C-13.33 8.68 -13.66 7.36 -14 6 C-9.49605818 1.40022963 -6.77374007 -0.82943756 0 0 Z " transform="translate(235,223)" style="fill: #F49234;"/><path d="M0 0 C0.59375 1.859375 0.59375 1.859375 1 4 C0.505 4.7425 0.01 5.485 -0.5 6.25 C-2.65592425 10.20252779 -1.81399296 12.63403775 -1 17 C-1.66 17.33 -2.32 17.66 -3 18 C-3.33 17.34 -3.66 16.68 -4 16 C-5.23396041 17.7142289 -5.23396041 17.7142289 -6 20 C-5.566875 21.051875 -5.566875 21.051875 -5.125 22.125 C-3.46431727 26.36896698 -3.84252422 30.49444286 -4 35 C-4.433125 34.0409375 -4.433125 34.0409375 -4.875 33.0625 C-5.82823451 30.84793921 -5.82823451 30.84793921 -8 30 C-8 32.31 -8 34.62 -8 37 C-8.66 37 -9.32 37 -10 37 C-10 38.32 -10 39.64 -10 41 C-10.99 41 -11.98 41 -13 41 C-13.38701279 34.16277399 -12.06518734 28.50293874 -10 22 C-9.79503906 21.34386719 -9.59007813 20.68773437 -9.37890625 20.01171875 C-6.97871018 13.04965935 -3.35208065 6.53885321 0 0 Z " transform="translate(96,135)" style="fill: #EC9546;"/><path d="M0 0 C0 0.66 0 1.32 0 2 C-0.66 2 -1.32 2 -2 2 C-2 2.66 -2 3.32 -2 4 C-0.02 3.67 1.96 3.34 4 3 C2.9375 4.5 2.9375 4.5 1 6 C-2.6875 6.1875 -2.6875 6.1875 -6 6 C-6.66 4.68 -7.32 3.36 -8 2 C-8.99 2.33 -9.98 2.66 -11 3 C-11 3.99 -11 4.98 -11 6 C-9.68 6 -8.36 6 -7 6 C-7 6.66 -7 7.32 -7 8 C-13.15901243 9.23180249 -18.78675502 8.73030908 -25 8 C-25 7.01 -25 6.02 -25 5 C-24.01 5 -23.02 5 -22 5 C-22 4.01 -22 3.02 -22 2 C-19.69 2 -17.38 2 -15 2 C-15 1.34 -15 0.68 -15 0 C-9.65370398 -1.0024305 -5.37625234 -0.84888195 0 0 Z " transform="translate(267,76)" style="fill: #F78E2E;"/><path d="M0 0 C1.32 0.66 2.64 1.32 4 2 C3.91253716 3.43861294 3.80434652 4.87597508 3.6875 6.3125 C3.62949219 7.11300781 3.57148438 7.91351563 3.51171875 8.73828125 C2.91161175 11.39066259 2.14291033 12.36503879 0 14 C-0.66 14 -1.32 14 -2 14 C-2.2475 15.0725 -2.495 16.145 -2.75 17.25 C-3.99883146 20.99649437 -5.02488658 22.52073882 -8 25 C-9.20287276 18.50448709 -8.58444052 13.39014027 -7 7 C-6.01 7 -5.02 7 -4 7 C-3.67 6.34 -3.34 5.68 -3 5 C-2.00585407 3.32983484 -1.0064275 1.66279327 0 0 Z " transform="translate(359,310)" style="fill: #FCFCFC;"/><path d="M0 0 C0.33 0.99 0.66 1.98 1 3 C2.299375 2.979375 3.59875 2.95875 4.9375 2.9375 C6.29165633 2.91600546 7.64756083 2.92851801 9 3 C10 4 10 4 10.0625 6.5625 C10.041875 7.366875 10.02125 8.17125 10 9 C9.5875 8.484375 9.175 7.96875 8.75 7.4375 C7.12573609 5.75963813 7.12573609 5.75963813 5.06640625 6.1796875 C2.45709454 7.21552013 1.72474921 8.36169068 0.1875 10.6875 C-3.50373007 15.85708166 -7.12327962 20.2677439 -13.4375 21.875 C-14.7059375 21.936875 -14.7059375 21.936875 -16 22 C-14.47388791 18.44179214 -12.33886858 16.04841927 -9.6875 13.25 C-5.83474623 9.0616838 -2.82874211 4.92748626 0 0 Z " transform="translate(371,327)" style="fill: #EEF7EB;"/><path d="M0 0 C1.24652344 -0.01417969 2.49304688 -0.02835938 3.77734375 -0.04296875 C7.0625 0.1875 7.0625 0.1875 10.0625 2.1875 C4.1225 2.6825 4.1225 2.6825 -1.9375 3.1875 C-1.6075 4.1775 -1.2775 5.1675 -0.9375 6.1875 C2.6925 6.1875 6.3225 6.1875 10.0625 6.1875 C9.7325 6.8475 9.4025 7.5075 9.0625 8.1875 C10.0525 8.1875 11.0425 8.1875 12.0625 8.1875 C12.3925 10.1675 12.7225 12.1475 13.0625 14.1875 C12.56621094 13.8265625 12.06992188 13.465625 11.55859375 13.09375 C6.92602109 9.92918423 3.84359372 8.33104167 -1.9375 9.1875 C-6.18988833 10.88845533 -9.46401054 13.22481781 -12.9375 16.1875 C-12.6075 14.5375 -12.2775 12.8875 -11.9375 11.1875 C-11.2775 11.1875 -10.6175 11.1875 -9.9375 11.1875 C-10.2675 10.1975 -10.5975 9.2075 -10.9375 8.1875 C-7.4725 7.6925 -7.4725 7.6925 -3.9375 7.1875 C-4.9700362 5.94673212 -4.9700362 5.94673212 -7.1875 5.9375 C-10.4527139 6.23433763 -12.18817114 7.47845774 -14.9375 9.1875 C-15.5975 8.8575 -16.2575 8.5275 -16.9375 8.1875 C-15.64814081 7.03907077 -14.35593421 5.89383773 -13.0625 4.75 C-11.98355469 3.79287109 -11.98355469 3.79287109 -10.8828125 2.81640625 C-7.27833794 -0.20179835 -4.64721557 0.02397944 0 0 Z " transform="translate(232.9375,213.8125)" style="fill: #FDEDD7;"/><path d="M0 0 C3.14737182 0.69941596 6.02588876 1.76078698 9 3 C9 3.66 9 4.32 9 5 C10.32 5.66 11.64 6.32 13 7 C13.125 10.375 13.125 10.375 13 14 C11 16 11 16 7.875 16.125 C6.451875 16.063125 6.451875 16.063125 5 16 C4.67 14.68 4.34 13.36 4 12 C3.0409375 11.8453125 3.0409375 11.8453125 2.0625 11.6875 C1.381875 11.460625 0.70125 11.23375 0 11 C-0.33 10.01 -0.66 9.02 -1 8 C-0.01 7.67 0.98 7.34 2 7 C2 6.34 2 5.68 2 5 C1.34 4.67 0.68 4.34 0 4 C0 2.68 0 1.36 0 0 Z " transform="translate(294,98)" style="fill: #F78E2E;"/><path d="M0 0 C0 0.66 0 1.32 0 2 C-2.31 1.67 -4.62 1.34 -7 1 C-7 1.66 -7 2.32 -7 3 C-6.01 3 -5.02 3 -4 3 C-3.67 4.32 -3.34 5.64 -3 7 C-3.99 7 -4.98 7 -6 7 C-6 7.66 -6 8.32 -6 9 C-5.01 8.67 -4.02 8.34 -3 8 C-3 8.66 -3 9.32 -3 10 C-1.35 10.66 0.3 11.32 2 12 C2 12.33 2 12.66 2 13 C-2.96950912 13.99390182 -6.38069565 14.25593933 -11 12 C-12.4375 10 -12.4375 10 -13 8 C-12.67 7.34 -12.34 6.68 -12 6 C-13.6396875 6.3403125 -13.6396875 6.3403125 -15.3125 6.6875 C-19 7 -19 7 -20.9375 5.5625 C-21.4634375 4.7890625 -21.4634375 4.7890625 -22 4 C-20.453125 3.87625 -20.453125 3.87625 -18.875 3.75 C-14.94401079 3.27777751 -14.94401079 3.27777751 -12.125 0.875 C-7.83611983 -1.6983281 -4.75189211 -0.97149794 0 0 Z " transform="translate(179,311)" style="fill: #F78E2E;"/><path d="M0 0 C3.95829688 -0.22822613 6.67851541 0.44949991 10.3125 2 C11.19550781 2.37125 12.07851562 2.7425 12.98828125 3.125 C13.65214844 3.41375 14.31601563 3.7025 15 4 C15.33 3.01 15.66 2.02 16 1 C16.99 0.67 17.98 0.34 19 0 C19 0.99 19 1.98 19 3 C18.34 3 17.68 3 17 3 C17 4.32 17 5.64 17 7 C16.44183594 6.84015625 15.88367188 6.6803125 15.30859375 6.515625 C10.18796732 5.37193179 4.92469153 5.27824068 0 7.125 C-3.15882709 10.0864004 -3.86685278 12.98176845 -4.1484375 17.25 C-4.21059689 21.02929117 -4.03274165 24.34822551 -3 28 C-4.32 27.34 -5.64 26.68 -7 26 C-7 20.72 -7 15.44 -7 10 C-6.34 10 -5.68 10 -5 10 C-5 9.34 -5 8.68 -5 8 C-4.34 7.67 -3.68 7.34 -3 7 C-3 5.35 -3 3.7 -3 2 C-2.01 2 -1.02 2 0 2 C0 1.34 0 0.68 0 0 Z " transform="translate(147,336)" style="fill: #FDF2E1;"/><path d="M0 0 C2.8100346 1.79363911 4.50940468 3.01880935 6 6 C6.07065617 8.04055005 6.08421976 10.08334257 6.0625 12.125 C6.05347656 13.22070312 6.04445313 14.31640625 6.03515625 15.4453125 C6.02355469 16.28835938 6.01195312 17.13140625 6 18 C5.67 18 5.34 18 5 18 C4.67 15.36 4.34 12.72 4 10 C3.34 10.66 2.68 11.32 2 12 C1.67 11.01 1.34 10.02 1 9 C-0.32 9 -1.64 9 -3 9 C-3.33 9.66 -3.66 10.32 -4 11 C-5.0725 10.79375 -6.145 10.5875 -7.25 10.375 C-10.87619096 10.0123809 -12.08291076 10.01637931 -15 12 C-15.66 11.34 -16.32 10.68 -17 10 C-13.85048144 6.23892444 -11.57114884 5.3788455 -6.75 4.75 C-5.13351562 4.52570313 -5.13351562 4.52570313 -3.484375 4.296875 C-2.25460937 4.14992188 -2.25460937 4.14992188 -1 4 C-1 3.34 -1 2.68 -1 2 C-4.3 2.33 -7.6 2.66 -11 3 C-11 2.34 -11 1.68 -11 1 C-7.28985899 -0.23671367 -3.85561242 -0.56368603 0 0 Z " transform="translate(336,262)" style="fill: #A18B45;"/><path d="M0 0 C0.33 0 0.66 0 1 0 C1.05607422 1.54107422 1.05607422 1.54107422 1.11328125 3.11328125 C1.48483863 11.44261095 2.31654309 19.03401469 5 27 C-0.31227273 30.16475822 -5.52464755 31.7934458 -11.5 33.1875 C-12.21148193 33.35411133 -12.92296387 33.52072266 -13.65600586 33.69238281 C-22.68291151 35.71241868 -31.27026506 36.13426229 -40.5 36.0625 C-41.60859375 36.05798828 -42.7171875 36.05347656 -43.859375 36.04882812 C-46.57297399 36.03713158 -49.28645761 36.02074086 -52 36 C-52 35.67 -52 35.34 -52 35 C-51.11030518 34.96241577 -51.11030518 34.96241577 -50.20263672 34.92407227 C-38.78791071 34.43695264 -27.38992247 33.9135262 -16 33 C-16 32.01 -16 31.02 -16 30 C-11.38 29.67 -6.76 29.34 -2 29 C-2 28.34 -2 27.68 -2 27 C-0.68 27 0.64 27 2 27 C1.7834375 26.46632813 1.566875 25.93265625 1.34375 25.3828125 C-1.87264934 16.77596611 -1.32689188 8.95652022 0 0 Z " transform="translate(260,280)" style="fill: #FCE7CD;"/><path d="M0 0 C2.0625 0.4375 2.0625 0.4375 4 1 C4.84748757 3.87540424 5.25546665 5.41695918 4.03125 8.2109375 C-1.00153871 15.32360317 -6.41784254 22.58654226 -14.875 25.6875 C-22.66808227 26.83354151 -22.66808227 26.83354151 -25.78515625 24.8828125 C-27.25008501 23.65684375 -28.63268492 22.33396593 -30 21 C-29.01 20.67 -28.02 20.34 -27 20 C-26.01 20.66 -25.02 21.32 -24 22 C-18.40786757 22.94856684 -13.64804177 22.00799725 -8.71875 19.2890625 C-6.1168522 17.33763915 -4.6826353 14.74207234 -3 12 C-2.01 12 -1.02 12 0 12 C0.33 9.69 0.66 7.38 1 5 C0.01 4.67 -0.98 4.34 -2 4 C-1.67 5.65 -1.34 7.3 -1 9 C-1.99 8.01 -2.98 7.02 -4 6 C-1.125 1.125 -1.125 1.125 0 0 Z " transform="translate(375,332)" style="fill: #517F56;"/><path d="M0 0 C0.33 0 0.66 0 1 0 C1.02578125 0.98742187 1.0515625 1.97484375 1.078125 2.9921875 C1.13484375 4.27351562 1.1915625 5.55484375 1.25 6.875 C1.29640625 8.15117187 1.3428125 9.42734375 1.390625 10.7421875 C1.6161547 14.06920639 1.6161547 14.06920639 3.921875 15.3203125 C4.95054687 15.65675781 4.95054687 15.65675781 6 16 C6.66 16.66 7.32 17.32 8 18 C9.98821313 18.39764263 11.98944339 18.73775349 14 19 C14 17.68 14 16.36 14 15 C17 15 17 15 18 16 C18 14.68 18 13.36 18 12 C15.36 11.67 12.72 11.34 10 11 C10.33 10.34 10.66 9.68 11 9 C12.65 9.33 14.3 9.66 16 10 C16 9.34 16 8.68 16 8 C17.32 7.34 18.64 6.68 20 6 C20 7.98 20 9.96 20 12 C22.97 12.495 22.97 12.495 26 13 C23.35780041 16.62079202 21.22161133 19.34806513 17 21 C12.01749065 21.283761 7.52721784 20.87678339 3.5 17.75 C-0.08235414 13.80941045 -1.08357602 11.04648933 -1.1875 5.8125 C-1 2 -1 2 0 0 Z " transform="translate(192,233)" style="fill: #E89D52;"/><path d="M0 0 C11.3574793 2.78955632 21.14217483 10.00776832 29.375 18.125 C32.65338675 21.25486923 34.54202652 22.55538358 39.125 22.5625 C40.40375 22.376875 41.6825 22.19125 43 22 C42.67 22.66 42.34 23.32 42 24 C39.71484375 24.4140625 39.71484375 24.4140625 36.9375 24.625 C36.01839844 24.69976562 35.09929687 24.77453125 34.15234375 24.8515625 C33.08693359 24.92503906 33.08693359 24.92503906 32 25 C32 24.34 32 23.68 32 23 C29.69 23 27.38 23 25 23 C25.33 21.02 25.66 19.04 26 17 C24.35 16.34 22.7 15.68 21 15 C21 15.66 21 16.32 21 17 C20.34 17 19.68 17 19 17 C19 15.35 19 13.7 19 12 C16.69 11.34 14.38 10.68 12 10 C12 9.34 12 8.68 12 8 C10.68 7.67 9.36 7.34 8 7 C8 6.01 8 5.02 8 4 C5.69 4 3.38 4 1 4 C0.67 2.68 0.34 1.36 0 0 Z " transform="translate(264,93)" style="fill: #FDF2DF;"/><path d="M0 0 C1.32 0 2.64 0 4 0 C4.66 1.32 5.32 2.64 6 4 C8.31 4 10.62 4 13 4 C13 4.99 13 5.98 13 7 C11.75283203 7.09087891 11.75283203 7.09087891 10.48046875 7.18359375 C8.85044922 7.30927734 8.85044922 7.30927734 7.1875 7.4375 C6.10855469 7.51871094 5.02960938 7.59992188 3.91796875 7.68359375 C0.94010095 7.90212461 0.94010095 7.90212461 -2 9 C-2 9.66 -2 10.32 -2 11 C-1.34 11.33 -0.68 11.66 0 12 C-1.65 12 -3.3 12 -5 12 C-6 9 -6 9 -5 7 C-5.598125 7.33 -6.19625 7.66 -6.8125 8 C-9 9 -9 9 -12 9 C-12 8.34 -12 7.68 -12 7 C-8.06718758 3.9099331 -4.97874064 2.47416578 0 2 C0 1.34 0 0.68 0 0 Z " transform="translate(156,303)" style="fill: #F88D2E;"/><path d="M0 0 C0.33 0.66 0.66 1.32 1 2 C-1 5 -1 5 -3.375 6.25 C-6.95672803 8.63781869 -8.0580014 11.18792867 -10 15 C-11.32 15 -12.64 15 -14 15 C-14 16.65 -14 18.3 -14 20 C-14.99 20 -15.98 20 -17 20 C-17 20.66 -17 21.32 -17 22 C-17.66 22.474375 -18.32 22.94875 -19 23.4375 C-19.99 24.2109375 -19.99 24.2109375 -21 25 C-21 25.99 -21 26.98 -21 28 C-20.34 27.67 -19.68 27.34 -19 27 C-19 28.98 -19 30.96 -19 33 C-19.66 33 -20.32 33 -21 33 C-21 32.34 -21 31.68 -21 31 C-22.32 31 -23.64 31 -25 31 C-25 31.66 -25 32.32 -25 33 C-25.66 33 -26.32 33 -27 33 C-27 34.32 -27 35.64 -27 37 C-28.485 37.495 -28.485 37.495 -30 38 C-25.70524528 23.14546176 -11.82569836 9.40680551 0 0 Z " transform="translate(127,97)" style="fill: #E7984E;"/><path d="M0 0 C0.66 0.33 1.32 0.66 2 1 C2 1.66 2 2.32 2 3 C2.680625 3.103125 3.36125 3.20625 4.0625 3.3125 C7.62915989 4.14725019 10.66222194 5.49472754 14 7 C14 4.69 14 2.38 14 0 C14.33 0 14.66 0 15 0 C15.33 2.64 15.66 5.28 16 8 C11.98195309 8.84098656 8.98196457 9.05404945 5 8 C5.33 8.33 5.66 8.66 6 9 C6.04063832 10.66617115 6.042721 12.33388095 6 14 C8.64 14 11.28 14 14 14 C13.67 14.99 13.34 15.98 13 17 C9.97298789 17.44297738 7.80474877 17.46485488 5.11328125 15.91015625 C0.81483495 12.51285173 -1.27310352 9.60748711 -2 4 C-1.125 1.5625 -1.125 1.5625 0 0 Z " transform="translate(296,324)" style="fill: #73844A;"/><path d="M0 0 C1.1845131 3.55353929 1.26641894 6.27013478 1 10 C-0.125 11.9375 -0.125 11.9375 -2 13 C-6.1167938 13.64039015 -7.75125073 13.14740698 -11.375 11 C-12.24125 10.34 -13.1075 9.68 -14 9 C-13.34 8.67 -12.68 8.34 -12 8 C-12 7.34 -12 6.68 -12 6 C-11.01 5.67 -10.02 5.34 -9 5 C-5.87046446 3.53955008 -2.94530176 1.79990663 0 0 Z " transform="translate(337,333)" style="fill: #FDFDFC;"/><path d="M0 0 C1.0415625 -0.00386719 2.083125 -0.00773437 3.15625 -0.01171875 C8.86628357 -0.00450911 14.35332001 0.26985375 20 1.125 C20 1.455 20 1.785 20 2.125 C19.05157227 2.15005615 18.10314453 2.1751123 17.12597656 2.20092773 C13.59981968 2.2961884 10.07382041 2.39541441 6.54785156 2.49731445 C5.02315614 2.54056707 3.49841531 2.58224885 1.97363281 2.62231445 C-0.22084222 2.68025203 -2.41509068 2.74387795 -4.609375 2.80859375 C-5.62834869 2.83366249 -5.62834869 2.83366249 -6.66790771 2.85923767 C-9.92076115 2.96055362 -12.87152306 3.22960832 -16 4.125 C-17.74886981 4.19124507 -19.50002748 4.21052595 -21.25 4.1875 C-22.14203125 4.17847656 -23.0340625 4.16945313 -23.953125 4.16015625 C-24.62859375 4.14855469 -25.3040625 4.13695313 -26 4.125 C-26 5.445 -26 6.765 -26 8.125 C-26.99 8.125 -27.98 8.125 -29 8.125 C-29 7.465 -29 6.805 -29 6.125 C-31.31 6.125 -33.62 6.125 -36 6.125 C-33.30962916 3.43462916 -31.08640908 3.32147124 -27.375 2.5625 C-26.18648437 2.31371094 -24.99796875 2.06492187 -23.7734375 1.80859375 C-15.75535557 0.35604268 -8.13765204 -0.03021405 0 0 Z " transform="translate(212,64.875)" style="fill: #E79953;"/><path d="M0 0 C5.94232331 -0.64825345 5.94232331 -0.64825345 8.9375 1.1875 C10.38718434 3.66049093 10.42317323 5.17884512 10 8 C8.875 9.8125 8.875 9.8125 7 11 C2.92205575 11.42478586 1.46923881 11.31282587 -2 9 C-2.43132515 4.94554358 -2.30019361 3.45029042 0 0 Z " transform="translate(235,40)" style="fill: #E99448;"/><path d="M0 0 C0.66 0.33 1.32 0.66 2 1 C2 1.66 2 2.32 2 3 C4.97 3.495 4.97 3.495 8 4 C7.67 5.32 7.34 6.64 7 8 C6.01 7.34 5.02 6.68 4 6 C4 6.66 4 7.32 4 8 C0.92032852 11.51702128 -1.73171655 13.86164181 -6.4375 14.375 C-7.283125 14.25125 -8.12875 14.1275 -9 14 C-9 13.01 -9 12.02 -9 11 C-9.66 10.67 -10.32 10.34 -11 10 C-10.360625 9.71125 -9.72125 9.4225 -9.0625 9.125 C-6.84793921 8.17176549 -6.84793921 8.17176549 -6 6 C-5.34 6 -4.68 6 -4 6 C-4 5.01 -4 4.02 -4 3 C-2.68 3 -1.36 3 0 3 C0 2.01 0 1.02 0 0 Z " transform="translate(146,294)" style="fill: #F58E31;"/><path d="M0 0 C5.46341463 2.92682927 5.46341463 2.92682927 7 6 C7.12005453 7.49649362 7.17531451 8.99874793 7.1875 10.5 C7.20167969 11.2940625 7.21585938 12.088125 7.23046875 12.90625 C7 15 7 15 5 17 C5 13.04 5 9.08 5 5 C3.68 4.67 2.36 4.34 1 4 C1 3.34 1 2.68 1 2 C-3.65052872 1.73067479 -3.65052872 1.73067479 -8 3 C-8.33 3.99 -8.66 4.98 -9 6 C-9.99 6.66 -10.98 7.32 -12 8 C-12.59332747 12.07852894 -12.59332747 12.07852894 -12 16 C-9.5 18.75 -9.5 18.75 -6 20 C-2.88006394 19.92457659 -2.88006394 19.92457659 0 19 C0.78375 18.814375 1.5675 18.62875 2.375 18.4375 C2.91125 18.293125 3.4475 18.14875 4 18 C4 18.66 4 19.32 4 20 C0.30536161 22.46309226 -3.71295641 22.82284906 -8 22 C-11.52379766 20.02970454 -13.70068885 17.89793345 -15 14 C-15.37066773 8.99598565 -15.09881835 6.01698676 -12 2 C-7.96499935 -0.69000043 -4.74124093 -0.678474 0 0 Z " transform="translate(60,255)" style="fill: #E29653;"/><path d="M0 0 C1.32 0.33 2.64 0.66 4 1 C4 1.66 4 2.32 4 3 C5.32 3 6.64 3 8 3 C7.52470993 7.27761063 5.2331694 9.34161627 2 12 C-3.16455696 13.41772152 -3.16455696 13.41772152 -6 12 C-5.67 9.69 -5.34 7.38 -5 5 C-3.68 4.67 -2.36 4.34 -1 4 C-0.67 2.68 -0.34 1.36 0 0 Z " transform="translate(217,234)" style="fill: #F29234;"/><path d="M0 0 C0.66 0.33 1.32 0.66 2 1 C2.375 3.0625 2.375 3.0625 2 6 C0.52001494 7.92693212 -1.06951386 9.63202976 -2.78515625 11.3515625 C-3.18605469 11.89554687 -3.58695312 12.43953125 -4 13 C-3.67 13.99 -3.34 14.98 -3 16 C-2.01 15.67 -1.02 15.34 0 15 C0 14.01 0 13.02 0 12 C0.99 12.33 1.98 12.66 3 13 C1.54240698 18.34450773 -2.09048458 21.33943957 -6 25 C-6.66 25.66 -7.32 26.32 -8 27 C-8.33 25.02 -8.66 23.04 -9 21 C-7.68 21 -6.36 21 -5 21 C-4.67 19.68 -4.34 18.36 -4 17 C-4.66 16.67 -5.32 16.34 -6 16 C-7.33333333 15.33333333 -8.66666667 14.66666667 -10 14 C-9.44570313 13.32453125 -8.89140625 12.6490625 -8.3203125 11.953125 C-7.59585937 11.06109375 -6.87140625 10.1690625 -6.125 9.25 C-5.40570313 8.36828125 -4.68640625 7.4865625 -3.9453125 6.578125 C-2.31557412 4.41823076 -1.09215995 2.460234 0 0 Z " transform="translate(362,322)" style="fill: #4E7F53;"/><path d="M0 0 C0.99 0.33 1.98 0.66 3 1 C2.71801758 1.48243164 2.43603516 1.96486328 2.14550781 2.46191406 C-3.24589374 11.74784156 -8.09972768 20.5968493 -11 31 C-11.97248512 33.98031561 -12.97576482 36.93442245 -14.0625 39.875 C-15.18223727 43.60745756 -15.59927133 47.12628957 -16 51 C-16.33 51 -16.66 51 -17 51 C-17 45.72 -17 40.44 -17 35 C-16.34 35 -15.68 35 -15 35 C-15.04125 34.21625 -15.0825 33.4325 -15.125 32.625 C-15 30 -15 30 -13 28 C-12.39688385 26.31238142 -11.86149763 24.59985524 -11.375 22.875 C-11.11460938 21.96492188 -10.85421875 21.05484375 -10.5859375 20.1171875 C-10.29589844 19.06917969 -10.29589844 19.06917969 -10 18 C-9.34 18 -8.68 18 -8 18 C-7.731875 16.948125 -7.46375 15.89625 -7.1875 14.8125 C-6.11348694 11.3643528 -4.92720833 9.00644499 -3 6 C-1.9849911 4.00757511 -0.98126556 2.00925805 0 0 Z " transform="translate(99,125)" style="fill: #FEF0D7;"/><path d="M0 0 C1.65 0 3.3 0 5 0 C5 0.33 5 0.66 5 1 C5.84071045 0.98952637 6.6814209 0.97905273 7.54760742 0.96826172 C10.73281803 0.93372777 13.91793176 0.90888504 17.10327148 0.89013672 C18.4695148 0.88021437 19.83573769 0.86667214 21.2019043 0.84912109 C30.19917033 0.73661391 39.22257744 0.77867607 48 3 C48.66 3.66 49.32 4.32 50 5 C49.43692139 4.92998779 48.87384277 4.85997559 48.29370117 4.7878418 C40.95923505 3.95723389 33.68938067 3.80950755 26.3125 3.8125 C25.07894775 3.81040527 23.84539551 3.80831055 22.57446289 3.80615234 C14.74955409 3.84428493 7.27514112 4.30504917 -0.41015625 5.7578125 C-3 6 -3 6 -6 4 C-4.02 3.67 -2.04 3.34 0 3 C0 2.01 0 1.02 0 0 Z " transform="translate(188,79)" style="fill: #E9964C;"/><path d="M0 0 C0.33 0 0.66 0 1 0 C1.33 1.65 1.66 3.3 2 5 C3.0828125 4.7215625 3.0828125 4.7215625 4.1875 4.4375 C7.12826973 3.98004693 9.14103058 4.26483643 12 5 C11.67 5.66 11.34 6.32 11 7 C9.68 7 8.36 7 7 7 C6.690625 7.9590625 6.690625 7.9590625 6.375 8.9375 C5 11 5 11 1.875 11.75 C0.451875 11.87375 0.451875 11.87375 -1 12 C-1.33 13.32 -1.66 14.64 -2 16 C-4.64 16 -7.28 16 -10 16 C-10 15.34 -10 14.68 -10 14 C-9.01 14 -8.02 14 -7 14 C-4.86801749 9.98145046 -4.86801749 9.98145046 -3.4375 5.6875 C-3.293125 5.130625 -3.14875 4.57375 -3 4 C-2.34 3.67 -1.68 3.34 -1 3 C-0.67 2.01 -0.34 1.02 0 0 Z " transform="translate(340,274)" style="fill: #7D833B;"/><path d="M0 0 C1.2684375 0.12375 1.2684375 0.12375 2.5625 0.25 C3.2225 1.24 3.8825 2.23 4.5625 3.25 C6.49326478 3.66428346 6.49326478 3.66428346 8.6953125 3.54296875 C9.50097656 3.53330078 10.30664062 3.52363281 11.13671875 3.51367188 C11.97847656 3.48853516 12.82023437 3.46339844 13.6875 3.4375 C14.53699219 3.42396484 15.38648438 3.41042969 16.26171875 3.39648438 C18.36224837 3.36108219 20.46245293 3.30727401 22.5625 3.25 C22.5625 3.91 22.5625 4.57 22.5625 5.25 C24.8725 5.91 27.1825 6.57 29.5625 7.25 C30.0575 9.23 30.0575 9.23 30.5625 11.25 C29.96824219 10.8890625 29.37398438 10.528125 28.76171875 10.15625 C18.69558829 4.52046934 10.65570959 5.61450664 -0.19921875 8.59375 C-1.30716797 8.91859375 -1.30716797 8.91859375 -2.4375 9.25 C-3.31640625 3.09765625 -3.31640625 3.09765625 -3.4375 1.25 C-2.4375 0.25 -2.4375 0.25 0 0 Z " transform="translate(291.4375,231.75)" style="fill: #FDF7E7;"/><path d="M0 0 C2.19310354 3.28965531 3.08189493 6.16452063 4.25 9.9375 C6.23853524 16.19099016 8.75705766 21.90926883 11.86328125 27.70703125 C13 30 13 30 13 32 C11.1875 33.0625 11.1875 33.0625 9 34 C8.01 33.67 7.02 33.34 6 33 C6.495 32.505 6.495 32.505 7 32 C7.50095023 29.12693772 7.50095023 29.12693772 7 26 C4.58119071 23.73122465 4.58119071 23.73122465 2 22 C2 20 2 20 4 18 C3.55123384 16.35153231 3.09069512 14.70626545 2.625 13.0625 C2.24214844 11.68771484 2.24214844 11.68771484 1.8515625 10.28515625 C1.23339896 7.83254913 1.23339896 7.83254913 -1 7 C-1 8.65 -1 10.3 -1 12 C-1.33 12 -1.66 12 -2 12 C-2 10.02 -2 8.04 -2 6 C-1.34 6 -0.68 6 0 6 C0 4.02 0 2.04 0 0 Z " transform="translate(84,232)" style="fill: #FDEFDD;"/><path d="M0 0 C1.12591553 0.00523682 2.25183105 0.01047363 3.41186523 0.01586914 C4.62680664 0.0190918 5.84174805 0.02231445 7.09350586 0.02563477 C8.37290039 0.03401367 9.65229492 0.04239258 10.97045898 0.05102539 C12.2537207 0.05553711 13.53698242 0.06004883 14.85913086 0.06469727 C18.04211921 0.07652994 21.22501661 0.09301471 24.40795898 0.11352539 C24.40795898 0.77352539 24.40795898 1.43352539 24.40795898 2.11352539 C23.45095093 2.13539917 23.45095093 2.13539917 22.47460938 2.15771484 C10.31147974 2.46678961 -1.48930467 3.04066299 -13.42407227 5.49243164 C-16.59204102 6.11352539 -16.59204102 6.11352539 -19.59204102 6.11352539 C-19.59204102 5.45352539 -19.59204102 4.79352539 -19.59204102 4.11352539 C-18.93204102 3.78352539 -18.27204102 3.45352539 -17.59204102 3.11352539 C-17.92204102 2.45352539 -18.25204102 1.79352539 -18.59204102 1.11352539 C-17.52083008 1.12512695 -16.44961914 1.13672852 -15.34594727 1.14868164 C-13.94881358 1.15805838 -12.55167803 1.1671587 -11.15454102 1.17602539 C-10.44749023 1.1844043 -9.74043945 1.1927832 -9.01196289 1.20141602 C-7.20510542 1.21006127 -5.39816499 1.16572551 -3.59204102 1.11352539 C-2.59204102 0.11352539 -2.59204102 0.11352539 0 0 Z " transform="translate(199.592041015625,62.886474609375)" style="fill: #FEF6E5;"/><path d="M0 0 C-0.33 1.32 -0.66 2.64 -1 4 C-0.67 3.67 -0.34 3.34 0 3 C0.99 3.66 1.98 4.32 3 5 C-1.95 9.95 -6.9 14.9 -12 20 C-12.33 19.01 -12.66 18.02 -13 17 C-12.01 15.515 -12.01 15.515 -11 14 C-11.30840599 11.84725052 -11.30840599 11.84725052 -12 10 C-10.02 10 -8.04 10 -6 10 C-6.2475 9.278125 -6.495 8.55625 -6.75 7.8125 C-7 5 -7 5 -5.25 2.1875 C-3 0 -3 0 0 0 Z " transform="translate(209,208)" style="fill: #FEF8ED;"/><path d="M0 0 C2 2 2 2 2.125 5.125 C2.08375 6.07375 2.0425 7.0225 2 8 C6.04622502 8.36980013 6.04622502 8.36980013 9 6 C11.1875 6.375 11.1875 6.375 13 7 C11.2758698 8.29838176 9.54546768 9.58843747 7.8125 10.875 C6.84957031 11.59429687 5.88664062 12.31359375 4.89453125 13.0546875 C2.28871325 14.80596599 -0.04792144 15.97459794 -3 17 C-3.34548714 10.66606918 -2.29342747 5.89738492 0 0 Z " transform="translate(322,313)" style="fill: #ECF5E7;"/><path d="M0 0 C0 0.66 0 1.32 0 2 C1.32 2 2.64 2 4 2 C3.67 3.32 3.34 4.64 3 6 C2.34 5.319375 1.68 4.63875 1 3.9375 C-2.53664899 1.65341419 -4.16600584 1.55977334 -8.19140625 2.3359375 C-10.22928893 2.94049907 -10.22928893 2.94049907 -12.0625 5.0625 C-13.47505086 9.4884927 -13.11612008 13.76775984 -11 18 C-14.18844618 17.05208357 -15.75485405 16.30234667 -17.875 13.6875 C-19.19887762 10.52490347 -19.09731793 9.20754472 -18 6 C-13.52184868 -0.71722697 -7.48290149 -1.60347889 0 0 Z " transform="translate(61,128)" style="fill: #FEF7E9;"/><path d="M0 0 C0.33 0 0.66 0 1 0 C1 2.64 1 5.28 1 8 C0.34 8 -0.32 8 -1 8 C-1.185625 9.7015625 -1.185625 9.7015625 -1.375 11.4375 C-1.58125 12.613125 -1.7875 13.78875 -2 15 C-2.99 15.495 -2.99 15.495 -4 16 C-4.33 16.66 -4.66 17.32 -5 18 C-6.515625 16.78125 -6.515625 16.78125 -8 15 C-8.109375 12.84375 -8.109375 12.84375 -7.75 10.5 C-7.64171875 9.7265625 -7.5334375 8.953125 -7.421875 8.15625 C-7 6 -7 6 -6 3 C-4.35 3 -2.7 3 -1 3 C-0.67 2.01 -0.34 1.02 0 0 Z " transform="translate(319,314)" style="fill: #66803D;"/><path d="M0 0 C1.10867432 -0.0319043 1.10867432 -0.0319043 2.23974609 -0.06445312 C7.23331948 -0.09757799 7.23331948 -0.09757799 9.66796875 1.765625 C10.00441406 2.25546875 10.34085938 2.7453125 10.6875 3.25 C8.7075 3.91 6.7275 4.57 4.6875 5.25 C4.6875 5.91 4.6875 6.57 4.6875 7.25 C2.3775 6.92 0.0675 6.59 -2.3125 6.25 C-2.3125 5.26 -2.3125 4.27 -2.3125 3.25 C-1.3225 2.92 -0.3325 2.59 0.6875 2.25 C-10.8625 2.25 -22.4125 2.25 -34.3125 2.25 C-34.3125 1.92 -34.3125 1.59 -34.3125 1.25 C-22.88188179 0.70277407 -11.44356434 0.16282954 0 0 Z " transform="translate(242.3125,314.75)" style="fill: #E18D3A;"/><path d="M0 0 C9.89494459 0.81918931 9.89494459 0.81918931 14 3 C14.33 3.66 14.66 4.32 15 5 C21.20600569 7.74612727 26.40472424 8.3434821 33 7 C32.67 7.99 32.34 8.98 32 10 C32.680625 9.95875 33.36125 9.9175 34.0625 9.875 C37.59924168 10.02549965 40.63323033 10.94375853 44 12 C44 12.33 44 12.66 44 13 C38.519931 13.14629773 33.53731844 12.77576063 28.1875 11.5 C27.47408447 11.33274414 26.76066895 11.16548828 26.02563477 10.99316406 C16.95993446 8.70152112 8.49609129 4.84235962 0 1 C0 0.67 0 0.34 0 0 Z " transform="translate(162,302)" style="fill: #FDEBD2;"/><path d="M0 0 C0.33 0.66 0.66 1.32 1 2 C1.66 2 2.32 2 3 2 C3 1.34 3 0.68 3 0 C3.66 0 4.32 0 5 0 C5.33 2.97 5.66 5.94 6 9 C5.05125 9.2475 4.1025 9.495 3.125 9.75 C-0.08693191 10.6857077 -0.08693191 10.6857077 -1.375 13.125 C-1.58125 13.74375 -1.7875 14.3625 -2 15 C-2 14.34 -2 13.68 -2 13 C-3.97536745 13.34786708 -3.97536745 13.34786708 -6 14 C-6.33 14.66 -6.66 15.32 -7 16 C-8.98 16 -10.96 16 -13 16 C-11 14 -11 14 -8 14 C-8 13.34 -8 12.68 -8 12 C-5 10 -5 10 -2 10 C-1.93941406 9.36191406 -1.87882812 8.72382813 -1.81640625 8.06640625 C-1.73261719 7.24011719 -1.64882813 6.41382813 -1.5625 5.5625 C-1.48128906 4.73878906 -1.40007812 3.91507812 -1.31640625 3.06640625 C-1 1 -1 1 0 0 Z " transform="translate(269,298)" style="fill: #CF8931;"/><path d="M0 0 C2.97 0.495 2.97 0.495 6 1 C6 1.99 6 2.98 6 4 C8.31 4.33 10.62 4.66 13 5 C13.12375 5.928125 13.12375 5.928125 13.25 6.875 C13.79278299 9.15354435 13.79278299 9.15354435 15.875 10.0625 C16.57625 10.371875 17.2775 10.68125 18 11 C19.75 12.5 19.75 12.5 21 14 C21 14.66 21 15.32 21 16 C21.99 16.33 22.98 16.66 24 17 C24.33 20.3 24.66 23.6 25 27 C23.35 27.66 21.7 28.32 20 29 C20.33 28.01 20.66 27.02 21 26 C21.66 26 22.32 26 23 26 C22.67 23.36 22.34 20.72 22 18 C21.01 17.67 20.02 17.34 19 17 C17.87495178 15.87495178 16.7542002 14.74525874 15.65625 13.59375 C12.76848895 10.81496107 9.56246883 8.42380086 6.40234375 5.96484375 C4.11498686 4.09404616 2.0497916 2.12553448 0 0 Z " transform="translate(287,86)" style="fill: #FDEFD8;"/><path d="M0 0 C8.03816794 -0.61832061 8.03816794 -0.61832061 11.625 1.6875 C13 4 13 4 12.75 6.75 C12.5025 7.4925 12.255 8.235 12 9 C9 5.25 9 5.25 9 3 C8.34 3 7.68 3 7 3 C7 3.66 7 4.32 7 5 C6.01 5 5.02 5 4 5 C4 9.95 4 14.9 4 20 C1.50494038 17.50494038 1.64051624 16.32671112 1.375 12.875 C1.30023438 11.96492188 1.22546875 11.05484375 1.1484375 10.1171875 C1.09945313 9.41851562 1.05046875 8.71984375 1 8 C-0.65 8 -2.3 8 -4 8 C-2.25 5 -2.25 5 0 2 C1.32 2 2.64 2 4 2 C2.68 1.34 1.36 0.68 0 0 Z " transform="translate(347,278)" style="fill: #70834A;"/><path d="M0 0 C0.33 0 0.66 0 1 0 C1.53466228 2.68539415 2.05294683 5.37232628 2.5625 8.0625 C2.71396484 8.81466797 2.86542969 9.56683594 3.02148438 10.34179688 C3.91387513 15.13580305 4.22077278 19.18438879 3 24 C-4.36908276 28.91272184 -18.59515553 23.55031354 -27 22 C-27 21.67 -27 21.34 -27 21 C-25.783125 20.979375 -24.56625 20.95875 -23.3125 20.9375 C-22.62800781 20.92589844 -21.94351563 20.91429687 -21.23828125 20.90234375 C-19 21 -19 21 -16.71875 21.46875 C-13.22472793 22.15148994 -9.73370488 22.35526684 -6.1875 22.5625 C-2.6296875 22.7790625 -2.6296875 22.7790625 1 23 C0.505 11.615 0.505 11.615 0 0 Z " transform="translate(270,194)" style="fill: #E6A15D;"/><path d="M0 0 C1.32 0.33 2.64 0.66 4 1 C-0.95 5.95 -5.9 10.9 -11 16 C-12.60725635 12.78548731 -12.05748185 9.56387464 -12 6 C-10.35 5.34 -8.7 4.68 -7 4 C-7 3.34 -7 2.68 -7 2 C-6.01 2 -5.02 2 -4 2 C-4 2.66 -4 3.32 -4 4 C-3.13375 2.9790625 -3.13375 2.9790625 -2.25 1.9375 C-1.5075 1.298125 -0.765 0.65875 0 0 Z " transform="translate(252,168)" style="fill: #FEF8ED;"/><path d="M0 0 C0 3.10551666 -0.5393715 4.35261084 -2 7 C1.5219721 7.08004482 4.61981469 7.04005702 8 6 C6.48328036 10.55015893 2.83108947 12.50057264 -1 15 C-0.67 13.02 -0.34 11.04 0 9 C-1.65 8.67 -3.3 8.34 -5 8 C-7.12038635 10.61514317 -9.13091744 13.19637616 -11 16 C-11.99 16 -12.98 16 -14 16 C-14 16.66 -14 17.32 -14 18 C-14.66 18 -15.32 18 -16 18 C-14.6415798 14.95667235 -13.11536976 12.87690849 -10.7421875 10.546875 C-10.11699219 9.928125 -9.49179688 9.309375 -8.84765625 8.671875 C-8.19667969 8.03765625 -7.54570312 7.4034375 -6.875 6.75 C-6.21628906 6.1003125 -5.55757812 5.450625 -4.87890625 4.78125 C-3.25703357 3.18288273 -1.6306719 1.58938103 0 0 Z " transform="translate(209,215)" style="fill: #E89A4A;"/><path d="M0 0 C5.03163018 4.29785078 10.02718443 8.63425542 15 13 C11.78548731 14.60725635 8.56387464 14.05748185 5 14 C5.33 13.34 5.66 12.68 6 12 C6.66 12 7.32 12 8 12 C8 11.34 8 10.68 8 10 C7.071875 10.20625 6.14375 10.4125 5.1875 10.625 C2 11 2 11 -1 9 C-1.1875 6.375 -1.1875 6.375 -1 4 C-0.34 4 0.32 4 1 4 C0.67 2.68 0.34 1.36 0 0 Z " transform="translate(116,290)" style="fill: #FDF6E9;"/><path d="M0 0 C6.14741803 -0.25876504 11.18192809 0.57177091 17.0625 2.3125 C17.82626953 2.52583984 18.59003906 2.73917969 19.37695312 2.95898438 C24.09886355 4.31214091 28.52587655 5.97386973 33 8 C32.01 8.66 31.02 9.32 30 10 C30 9.34 30 8.68 30 8 C28.02 8.33 26.04 8.66 24 9 C24 8.01 24 7.02 24 6 C19.2250791 5.04501582 14.84860624 4.75756969 10 5 C9.34 5.66 8.68 6.32 8 7 C5.375 7.125 5.375 7.125 3 7 C3 6.34 3 5.68 3 5 C3.99 4.34 4.98 3.68 6 3 C4.02 2.34 2.04 1.68 0 1 C0 0.67 0 0.34 0 0 Z " transform="translate(232,67)" style="fill: #EA9548;"/></svg>